<svg id="svg" version="1.1" xmlns="http://www.w3.org/2000/svg" xmlns:xlink="http://www.w3.org/1999/xlink" width="400" height="349.54954954954957" viewBox="0, 0, 400,349.54954954954957"><g id="svgg"><path id="path0" d="M123.776 0.771 C 123.776 1.333,123.410 1.399,120.280 1.399 C 117.405 1.399,116.783 1.305,116.783 0.874 C 116.783 0.548,116.453 0.350,115.909 0.350 C 115.171 0.350,115.035 0.513,115.035 1.399 L 115.035 2.448 112.762 2.448 C 110.932 2.448,110.490 2.341,110.490 1.900 C 110.490 0.972,108.591 1.402,108.455 2.360 C 108.326 3.266,104.895 3.603,104.895 2.710 C 104.895 2.469,104.501 2.250,104.021 2.222 C 103.278 2.179,103.147 2.324,103.147 3.184 C 103.147 4.165,103.094 4.196,101.399 4.196 C 100.437 4.196,99.650 4.353,99.650 4.545 C 99.650 4.738,99.021 4.895,98.252 4.895 C 97.483 4.895,96.853 4.738,96.853 4.545 C 96.853 4.353,96.460 4.196,95.979 4.196 C 95.280 4.196,95.105 4.371,95.105 5.070 C 95.105 5.857,94.965 5.944,93.706 5.944 C 92.937 5.944,92.308 6.101,92.308 6.294 C 92.308 6.486,91.914 6.643,91.434 6.643 C 90.953 6.643,90.559 6.486,90.559 6.294 C 90.559 6.101,90.166 5.944,89.685 5.944 C 88.986 5.944,88.811 6.119,88.811 6.818 C 88.811 7.362,88.613 7.692,88.287 7.692 C 87.998 7.692,87.762 7.456,87.762 7.168 C 87.762 6.841,87.432 6.643,86.888 6.643 C 86.189 6.643,86.014 6.818,86.014 7.517 C 86.014 8.061,85.816 8.392,85.490 8.392 C 85.201 8.392,84.965 8.234,84.965 8.042 C 84.965 7.850,84.572 7.692,84.091 7.692 C 83.392 7.692,83.217 7.867,83.217 8.566 C 83.217 9.528,82.708 9.743,82.391 8.916 C 81.998 7.892,80.769 8.290,80.769 9.441 C 80.769 10.366,80.649 10.490,79.749 10.490 C 79.189 10.490,78.638 10.686,78.526 10.927 C 78.362 11.276,78.281 11.276,78.118 10.927 C 77.715 10.063,76.224 10.407,76.224 11.364 C 76.224 12.063,76.049 12.238,75.350 12.238 C 74.806 12.238,74.476 12.436,74.476 12.762 C 74.476 13.051,74.240 13.287,73.951 13.287 C 73.663 13.287,73.427 13.051,73.427 12.762 C 73.427 12.080,72.134 12.082,71.450 12.765 C 71.160 13.056,70.777 13.203,70.599 13.093 C 70.421 12.983,70.180 13.139,70.065 13.439 C 69.950 13.740,69.479 13.986,69.019 13.986 C 68.525 13.986,68.182 14.192,68.182 14.487 C 68.182 14.774,67.771 15.036,67.220 15.099 C 66.436 15.189,66.271 15.371,66.323 16.084 C 66.361 16.589,66.313 16.700,66.210 16.346 C 65.988 15.579,64.336 15.502,64.336 16.259 C 64.336 16.585,64.005 16.783,63.462 16.783 C 62.981 16.783,62.587 16.941,62.587 17.133 C 62.587 17.325,62.205 17.483,61.737 17.483 C 61.068 17.483,60.862 17.689,60.775 18.444 C 60.707 19.038,60.481 19.367,60.184 19.304 C 59.879 19.239,59.780 19.398,59.911 19.741 C 60.082 20.186,59.784 20.280,58.206 20.280 C 56.399 20.280,56.294 20.328,56.294 21.154 C 56.294 21.698,56.096 22.028,55.769 22.028 C 55.481 22.028,55.245 22.264,55.245 22.552 C 55.245 22.949,54.817 23.077,53.497 23.077 C 51.865 23.077,51.748 23.135,51.748 23.951 C 51.748 24.736,51.607 24.825,50.370 24.825 C 49.168 24.825,49.009 24.917,49.129 25.542 C 49.208 25.950,49.048 26.343,48.759 26.453 C 48.480 26.561,48.252 26.867,48.252 27.135 C 48.252 27.470,47.816 27.622,46.853 27.622 C 45.672 27.622,45.455 27.735,45.455 28.347 C 45.455 29.384,44.625 30.070,43.371 30.070 C 42.729 30.070,42.204 30.284,42.084 30.594 C 41.974 30.883,41.664 31.119,41.396 31.119 C 41.110 31.119,40.909 31.479,40.909 31.993 C 40.909 32.474,40.752 32.867,40.559 32.867 C 40.367 32.867,40.210 33.103,40.210 33.392 C 40.210 33.680,40.041 33.916,39.835 33.916 C 39.351 33.916,38.462 34.806,38.462 35.290 C 38.462 35.496,37.849 35.664,37.100 35.664 C 36.188 35.664,35.670 35.845,35.529 36.211 C 35.414 36.512,35.161 36.660,34.968 36.540 C 34.774 36.420,34.615 36.568,34.615 36.867 C 34.615 37.167,34.458 37.413,34.266 37.413 C 34.073 37.413,33.916 37.649,33.916 37.937 C 33.916 38.226,33.738 38.462,33.520 38.462 C 33.303 38.462,32.605 39.012,31.970 39.685 C 31.336 40.358,30.648 40.909,30.443 40.909 C 30.238 40.909,30.070 41.065,30.070 41.255 C 30.070 41.792,28.930 42.992,28.609 42.794 C 28.451 42.696,28.322 42.861,28.322 43.161 C 28.322 43.461,28.164 43.706,27.972 43.706 C 27.780 43.706,27.622 44.336,27.622 45.105 C 27.622 46.115,27.477 46.503,27.098 46.503 C 26.809 46.503,26.573 46.661,26.573 46.853 C 26.573 47.045,26.321 47.203,26.012 47.203 C 25.656 47.203,25.523 47.395,25.651 47.727 C 25.774 48.047,25.651 48.252,25.339 48.252 C 25.056 48.252,24.825 48.409,24.825 48.601 C 24.825 48.794,24.432 48.951,23.951 48.951 C 23.407 48.951,23.077 49.149,23.077 49.476 C 23.077 49.764,22.841 50.000,22.552 50.000 C 22.174 50.000,22.028 50.389,22.028 51.399 C 22.028 52.168,21.871 52.797,21.678 52.797 C 21.486 52.797,21.329 53.051,21.329 53.361 C 21.329 53.785,21.076 53.888,20.318 53.777 C 19.412 53.644,19.317 53.721,19.404 54.512 C 19.547 55.815,19.256 56.294,18.319 56.294 C 17.576 56.294,17.483 56.450,17.483 57.692 C 17.483 58.951,17.395 59.091,16.608 59.091 C 15.793 59.091,15.734 59.207,15.734 60.839 C 15.734 61.801,15.577 62.587,15.385 62.587 C 15.192 62.587,15.035 62.813,15.035 63.089 C 15.035 63.374,14.625 63.638,14.083 63.701 C 13.227 63.800,13.118 63.970,13.004 65.385 C 12.934 66.250,12.733 67.010,12.557 67.075 C 12.382 67.139,12.238 67.571,12.238 68.036 C 12.238 68.554,12.035 68.881,11.713 68.881 C 11.387 68.881,11.189 69.211,11.189 69.755 C 11.189 70.236,11.031 70.629,10.839 70.629 C 10.647 70.629,10.490 71.023,10.490 71.503 C 10.490 72.047,10.291 72.378,9.965 72.378 C 9.615 72.378,9.441 72.727,9.441 73.427 C 9.441 74.312,9.305 74.476,8.566 74.476 C 7.610 74.476,7.266 75.966,8.129 76.369 C 8.479 76.533,8.479 76.614,8.129 76.777 C 7.889 76.890,7.692 77.440,7.692 78.001 C 7.692 78.856,7.551 79.021,6.818 79.021 C 5.861 79.021,5.517 80.512,6.381 80.915 C 6.731 81.078,6.731 81.160,6.381 81.323 C 6.141 81.435,5.944 82.143,5.944 82.896 C 5.944 83.880,5.797 84.266,5.420 84.266 C 5.041 84.266,4.895 84.654,4.895 85.664 C 4.895 86.923,4.808 87.063,4.021 87.063 C 3.322 87.063,3.147 87.238,3.147 87.937 C 3.147 88.481,3.345 88.811,3.671 88.811 C 3.998 88.811,4.196 89.141,4.196 89.685 C 4.196 90.416,4.030 90.559,3.184 90.559 C 2.324 90.559,2.179 90.691,2.222 91.433 C 2.250 91.914,2.469 92.307,2.710 92.307 C 2.950 92.308,3.147 92.701,3.147 93.182 C 3.147 93.881,2.972 94.056,2.273 94.056 C 1.573 94.056,1.399 94.231,1.399 94.930 C 1.399 95.474,1.597 95.804,1.923 95.804 C 2.326 95.804,2.448 96.251,2.448 97.727 C 2.448 99.631,2.437 99.650,1.399 99.650 C 0.513 99.650,0.350 99.786,0.350 100.524 C 0.350 101.068,0.548 101.399,0.874 101.399 C 1.301 101.399,1.399 101.981,1.399 104.545 C 1.399 107.309,1.324 107.692,0.787 107.692 C 0.223 107.692,0.173 108.300,0.154 115.385 C 0.134 122.583,0.173 123.077,0.766 123.077 C 1.320 123.077,1.399 123.401,1.399 125.699 C 1.399 127.797,1.294 128.322,0.874 128.322 C 0.495 128.322,0.350 128.710,0.350 129.720 C 0.350 131.247,1.847 131.881,2.207 130.507 C 2.294 130.170,2.385 130.800,2.407 131.906 C 2.439 133.478,2.333 133.916,1.923 133.916 C 1.597 133.916,1.399 134.246,1.399 134.790 C 1.399 135.490,1.573 135.664,2.273 135.664 C 3.059 135.664,3.147 135.804,3.147 137.063 C 3.147 137.949,2.987 138.462,2.710 138.462 C 2.469 138.462,2.250 138.855,2.222 139.336 C 2.179 140.078,2.324 140.210,3.184 140.210 C 4.131 140.210,4.196 140.299,4.196 141.608 C 4.196 142.378,4.353 143.007,4.545 143.007 C 4.738 143.007,4.895 143.400,4.895 143.881 C 4.895 144.362,4.738 144.755,4.545 144.755 C 4.353 144.755,4.196 145.149,4.196 145.629 C 4.196 146.336,4.369 146.503,5.099 146.503 C 5.674 146.503,5.944 146.662,5.842 146.941 C 5.754 147.181,5.505 147.338,5.288 147.290 C 5.065 147.241,4.895 147.656,4.895 148.252 C 4.895 149.138,5.031 149.301,5.769 149.301 C 6.469 149.301,6.643 149.476,6.643 150.175 C 6.643 150.719,6.841 151.049,7.168 151.049 C 7.456 151.049,7.692 151.206,7.692 151.399 C 7.692 151.591,7.456 151.748,7.168 151.748 C 6.841 151.748,6.643 152.078,6.643 152.622 C 6.643 153.322,6.818 153.497,7.517 153.497 C 8.220 153.497,8.392 153.671,8.392 154.382 C 8.392 154.868,8.628 155.357,8.916 155.468 C 9.205 155.579,9.441 156.046,9.441 156.506 C 9.441 157.017,9.645 157.343,9.965 157.343 C 10.253 157.343,10.490 157.500,10.490 157.692 C 10.490 157.885,10.253 158.042,9.965 158.042 C 9.639 158.042,9.441 158.372,9.441 158.916 C 9.441 159.460,9.639 159.790,9.965 159.790 C 10.315 159.790,10.490 160.140,10.490 160.839 C 10.490 161.416,10.647 161.888,10.839 161.888 C 11.031 161.888,11.189 162.281,11.189 162.762 C 11.189 163.432,11.372 163.639,11.976 163.647 C 13.423 163.668,13.986 164.434,13.986 166.385 C 13.986 167.749,14.112 168.182,14.510 168.182 C 14.837 168.182,15.035 168.512,15.035 169.056 C 15.035 169.755,15.210 169.930,15.909 169.930 C 16.696 169.930,16.783 170.070,16.783 171.329 C 16.783 172.587,16.871 172.727,17.657 172.727 C 18.423 172.727,18.531 172.879,18.531 173.951 C 18.531 175.023,18.640 175.175,19.406 175.175 C 19.949 175.175,20.280 175.373,20.280 175.699 C 20.280 175.988,20.516 176.224,20.804 176.224 C 21.183 176.224,21.329 176.612,21.329 177.622 C 21.329 178.804,21.441 179.021,22.053 179.021 C 22.827 179.021,23.776 179.778,23.776 180.395 C 23.776 180.601,24.012 180.769,24.301 180.769 C 24.664 180.769,24.825 181.134,24.825 181.956 C 24.825 182.709,25.025 183.219,25.372 183.352 C 25.672 183.467,25.821 183.720,25.701 183.914 C 25.573 184.121,25.924 184.266,26.553 184.266 C 27.141 184.266,27.622 184.434,27.622 184.640 C 27.622 185.124,28.512 186.014,28.996 186.014 C 29.202 186.014,29.371 186.183,29.371 186.389 C 29.371 186.873,30.260 187.762,30.744 187.762 C 30.950 187.762,31.119 187.998,31.119 188.287 C 31.119 188.575,31.276 188.811,31.469 188.811 C 31.661 188.811,31.818 188.980,31.818 189.186 C 31.818 189.803,30.869 190.559,30.095 190.559 C 29.555 190.559,29.371 190.782,29.371 191.434 C 29.371 191.977,29.172 192.308,28.846 192.308 C 28.467 192.308,28.322 192.696,28.322 193.706 C 28.322 194.965,28.234 195.105,27.448 195.105 C 26.748 195.105,26.573 195.280,26.573 195.979 C 26.573 196.494,26.373 196.853,26.085 196.853 C 25.737 196.853,25.618 197.254,25.669 198.252 C 25.736 199.568,25.683 199.650,24.758 199.650 C 23.944 199.650,23.776 199.800,23.776 200.524 C 23.776 201.005,23.619 201.399,23.427 201.399 C 23.234 201.399,23.077 202.185,23.077 203.147 C 23.077 204.468,22.949 204.895,22.552 204.895 C 22.264 204.895,22.028 205.131,22.028 205.420 C 22.028 205.746,21.698 205.944,21.154 205.944 C 20.338 205.944,20.280 206.061,20.280 207.692 C 20.280 209.013,20.152 209.441,19.755 209.441 C 19.467 209.441,19.270 209.637,19.318 209.878 C 19.367 210.123,18.985 210.363,18.444 210.425 C 17.540 210.529,17.483 210.639,17.483 212.261 C 17.483 213.210,17.325 213.986,17.133 213.986 C 16.941 213.986,16.783 214.222,16.783 214.510 C 16.783 214.837,16.453 215.035,15.909 215.035 C 15.093 215.035,15.035 215.152,15.035 216.783 C 15.035 218.104,14.907 218.531,14.510 218.531 C 14.222 218.531,13.986 218.767,13.986 219.056 C 13.986 219.382,13.656 219.580,13.112 219.580 C 12.296 219.580,12.238 219.697,12.238 221.329 C 12.238 222.650,12.110 223.077,11.713 223.077 C 11.425 223.077,11.189 223.234,11.189 223.427 C 11.189 223.619,10.795 223.776,10.315 223.776 C 9.488 223.776,9.441 223.881,9.441 225.699 C 9.441 226.834,9.287 227.622,9.066 227.622 C 8.860 227.622,8.462 227.852,8.182 228.132 C 7.901 228.412,7.450 228.556,7.178 228.452 C 6.790 228.303,6.686 228.646,6.697 230.032 C 6.712 231.958,6.142 232.867,4.920 232.867 C 4.275 232.867,4.196 233.078,4.196 234.790 C 4.196 236.267,4.074 236.713,3.671 236.713 C 3.383 236.713,3.147 236.871,3.147 237.063 C 3.147 237.255,2.753 237.413,2.273 237.413 C 1.573 237.413,1.399 237.587,1.399 238.287 C 1.399 238.822,1.597 239.161,1.912 239.161 C 2.225 239.161,2.347 239.366,2.224 239.685 C 2.110 239.984,1.588 240.210,1.012 240.210 C 0.166 240.210,0.000 240.353,0.000 241.084 C 0.000 241.887,0.128 241.958,1.573 241.958 C 3.019 241.958,3.147 241.887,3.147 241.084 C 3.147 240.297,3.287 240.210,4.545 240.210 C 5.315 240.210,5.944 240.367,5.944 240.559 C 5.944 240.752,6.337 240.909,6.818 240.909 C 7.517 240.909,7.692 240.734,7.692 240.035 C 7.692 239.248,7.832 239.161,9.091 239.161 C 10.101 239.161,10.490 239.307,10.490 239.685 C 10.490 240.012,10.820 240.210,11.364 240.210 C 12.063 240.210,12.238 240.035,12.238 239.336 C 12.238 238.520,12.354 238.462,13.986 238.462 C 14.948 238.462,15.734 238.619,15.734 238.811 C 15.734 239.003,16.128 239.161,16.608 239.161 C 17.308 239.161,17.483 238.986,17.483 238.287 C 17.483 237.500,17.622 237.413,18.881 237.413 C 19.891 237.413,20.280 237.558,20.280 237.937 C 20.280 238.263,20.610 238.462,21.154 238.462 C 21.853 238.462,22.028 238.287,22.028 237.587 C 22.028 236.801,22.168 236.713,23.427 236.713 C 24.196 236.713,24.825 236.871,24.825 237.063 C 24.825 237.255,25.219 237.413,25.699 237.413 C 26.399 237.413,26.573 237.238,26.573 236.538 C 26.573 235.481,29.805 235.169,30.196 236.189 C 30.608 237.262,31.913 236.820,31.744 235.664 C 31.593 234.637,31.620 234.615,33.103 234.615 C 34.214 234.615,34.615 234.754,34.615 235.140 C 34.615 235.466,34.946 235.664,35.490 235.664 C 36.189 235.664,36.364 235.490,36.364 234.790 C 36.364 234.003,36.503 233.916,37.762 233.916 C 38.531 233.916,39.161 234.073,39.161 234.266 C 39.161 234.458,39.554 234.615,40.035 234.615 C 40.734 234.615,40.909 234.441,40.909 233.741 C 40.909 232.915,41.014 232.867,42.832 232.867 C 44.308 232.867,44.755 232.989,44.755 233.392 C 44.755 233.718,45.085 233.916,45.629 233.916 C 46.329 233.916,46.503 233.741,46.503 233.042 C 46.503 232.253,46.642 232.168,47.923 232.168 C 48.780 232.168,49.256 232.306,49.126 232.517 C 49.000 232.721,49.355 232.867,49.979 232.867 C 50.887 232.867,51.049 232.735,51.049 231.993 C 51.049 231.227,51.200 231.119,52.273 231.119 C 53.127 231.119,53.497 231.277,53.497 231.643 C 53.497 231.970,53.827 232.168,54.371 232.168 C 54.915 232.168,55.245 231.970,55.245 231.643 C 55.245 231.355,55.481 231.119,55.769 231.119 C 56.058 231.119,56.294 230.962,56.294 230.769 C 56.294 230.577,56.923 230.420,57.692 230.420 C 58.462 230.420,59.091 230.577,59.091 230.769 C 59.091 230.962,59.484 231.119,59.965 231.119 C 60.664 231.119,60.839 230.944,60.839 230.245 C 60.839 229.458,60.979 229.371,62.238 229.371 C 63.248 229.371,63.636 229.516,63.636 229.895 C 63.636 230.221,63.967 230.420,64.510 230.420 C 65.249 230.420,65.385 230.256,65.385 229.371 L 65.385 228.322 67.657 228.322 C 68.939 228.322,69.930 228.169,69.930 227.972 C 69.930 227.780,70.717 227.622,71.678 227.622 C 72.640 227.622,73.427 227.780,73.427 227.972 C 73.427 228.164,73.820 228.322,74.301 228.322 C 75.000 228.322,75.175 228.147,75.175 227.448 C 75.175 226.661,75.315 226.573,76.573 226.573 C 77.584 226.573,77.972 226.719,77.972 227.098 C 77.972 227.424,78.302 227.622,78.846 227.622 C 79.545 227.622,79.720 227.448,79.720 226.748 C 79.720 225.962,79.860 225.874,81.119 225.874 C 81.888 225.874,82.517 226.031,82.517 226.224 C 82.517 226.416,82.843 226.573,83.242 226.573 C 84.016 226.573,84.965 225.817,84.965 225.200 C 84.965 224.994,85.594 224.825,86.364 224.825 C 87.374 224.825,87.762 224.971,87.762 225.350 C 87.762 225.676,88.092 225.874,88.636 225.874 C 89.375 225.874,89.510 225.711,89.510 224.825 L 89.510 223.776 91.783 223.776 C 93.570 223.776,94.056 223.888,94.056 224.301 C 94.056 224.703,94.503 224.825,95.979 224.825 C 97.797 224.825,97.902 224.873,97.902 225.699 C 97.902 226.399,98.077 226.573,98.776 226.573 C 99.257 226.573,99.650 226.416,99.650 226.224 C 99.650 226.031,100.044 225.874,100.524 225.874 C 101.224 225.874,101.399 226.049,101.399 226.748 C 101.399 227.448,101.573 227.622,102.273 227.622 C 102.817 227.622,103.147 227.424,103.147 227.098 C 103.147 226.719,103.535 226.573,104.545 226.573 C 105.804 226.573,105.944 226.661,105.944 227.448 C 105.944 228.147,106.119 228.322,106.818 228.322 C 107.299 228.322,107.692 228.164,107.692 227.972 C 107.692 227.780,108.479 227.622,109.441 227.622 C 111.072 227.622,111.189 227.681,111.189 228.497 C 111.189 229.283,111.329 229.371,112.587 229.371 C 113.614 229.371,113.986 229.227,113.986 228.832 C 113.986 228.383,114.508 228.303,117.140 228.351 C 119.616 228.396,120.176 228.495,119.744 228.811 C 119.409 229.056,119.284 229.451,119.424 229.817 C 119.727 230.606,122.028 230.675,122.028 229.895 C 122.028 229.451,122.863 229.371,127.448 229.371 L 132.867 229.371 132.867 224.476 L 132.867 219.580 133.741 219.580 C 134.483 219.580,134.615 219.419,134.615 218.511 C 134.615 217.887,134.470 217.531,134.266 217.657 C 134.046 217.793,133.916 217.020,133.916 215.580 C 133.916 213.367,133.947 213.287,134.790 213.287 C 135.528 213.287,135.664 213.124,135.664 212.238 C 135.664 211.585,135.499 211.222,135.227 211.276 C 134.954 211.331,134.750 210.872,134.682 210.052 C 134.582 208.850,134.648 208.741,135.468 208.741 C 136.190 208.741,136.364 208.572,136.364 207.867 C 136.364 207.386,136.206 206.993,136.014 206.993 C 135.822 206.993,135.664 206.757,135.664 206.469 C 135.664 206.180,135.822 205.944,136.014 205.944 C 136.206 205.944,136.364 205.708,136.364 205.420 C 136.364 205.131,136.600 204.895,136.888 204.895 C 137.214 204.895,137.413 204.565,137.413 204.021 C 137.413 203.477,137.214 203.147,136.888 203.147 C 136.600 203.147,136.364 202.990,136.364 202.797 C 136.364 202.590,135.082 202.448,133.217 202.448 L 130.070 202.448 130.070 201.486 L 130.070 200.524 127.448 200.524 C 125.583 200.524,124.825 200.651,124.825 200.962 C 124.825 201.279,123.963 201.399,121.678 201.399 C 118.555 201.399,118.531 201.392,118.531 200.524 C 118.531 199.825,118.357 199.650,117.657 199.650 C 117.113 199.650,116.783 199.848,116.783 200.175 C 116.783 200.577,116.336 200.699,114.860 200.699 C 112.956 200.699,112.937 200.689,112.937 199.650 C 112.937 198.685,112.840 198.601,111.713 198.601 C 110.859 198.601,110.490 198.760,110.490 199.126 C 110.490 199.476,110.140 199.650,109.441 199.650 C 108.555 199.650,108.392 199.514,108.392 198.776 C 108.392 198.077,108.217 197.902,107.517 197.902 C 107.037 197.902,106.643 198.059,106.643 198.252 C 106.643 198.444,106.093 198.601,105.420 198.601 C 104.347 198.601,104.196 198.493,104.196 197.727 C 104.196 196.982,104.035 196.853,103.109 196.853 C 102.287 196.853,102.072 196.981,102.224 197.378 C 102.382 197.790,102.128 197.902,101.038 197.902 C 100.038 197.902,99.650 197.756,99.650 197.378 C 99.650 197.051,99.320 196.853,98.776 196.853 C 98.077 196.853,97.902 196.678,97.902 195.979 C 97.902 195.241,97.739 195.105,96.853 195.105 C 96.200 195.105,95.837 195.270,95.892 195.542 C 95.941 195.788,95.558 196.027,95.017 196.090 C 94.166 196.188,94.056 196.085,94.056 195.198 C 94.056 194.362,93.911 194.196,93.182 194.196 C 92.458 194.196,92.308 194.364,92.308 195.175 C 92.308 196.084,92.208 196.154,90.909 196.154 C 89.899 196.154,89.510 196.008,89.510 195.629 C 89.510 195.303,89.180 195.105,88.636 195.105 C 87.937 195.105,87.762 195.280,87.762 195.979 C 87.762 196.795,87.646 196.853,86.014 196.853 C 85.052 196.853,84.266 196.696,84.266 196.503 C 84.266 196.311,83.872 196.154,83.392 196.154 C 82.692 196.154,82.517 196.329,82.517 197.028 C 82.517 197.815,82.378 197.902,81.119 197.902 C 80.109 197.902,79.720 197.756,79.720 197.378 C 79.720 197.051,79.390 196.853,78.846 196.853 C 78.147 196.853,77.972 197.028,77.972 197.727 C 77.972 198.514,77.832 198.601,76.573 198.601 C 75.804 198.601,75.175 198.444,75.175 198.252 C 75.175 198.059,74.781 197.902,74.301 197.902 C 73.601 197.902,73.427 198.077,73.427 198.776 C 73.427 199.592,73.310 199.650,71.678 199.650 C 70.357 199.650,69.930 199.522,69.930 199.126 C 69.930 198.800,69.600 198.601,69.056 198.601 C 68.318 198.601,68.182 198.765,68.182 199.650 C 68.182 200.641,68.104 200.699,66.783 200.699 C 65.773 200.699,65.385 200.554,65.385 200.175 C 65.385 199.848,65.054 199.650,64.510 199.650 C 63.811 199.650,63.636 199.825,63.636 200.524 C 63.636 201.311,63.497 201.399,62.238 201.399 C 61.284 201.399,60.839 201.246,60.839 200.918 C 60.839 200.638,60.474 200.437,59.965 200.437 C 59.235 200.437,59.091 200.603,59.091 201.442 C 59.091 202.103,58.911 202.448,58.566 202.448 C 58.188 202.448,58.042 202.059,58.042 201.049 C 58.042 199.790,58.129 199.650,58.916 199.650 C 59.732 199.650,59.790 199.534,59.790 197.902 C 59.790 196.581,59.918 196.154,60.315 196.154 C 60.603 196.154,60.839 195.918,60.839 195.629 C 60.839 195.303,61.169 195.105,61.713 195.105 C 62.529 195.105,62.587 194.988,62.587 193.357 C 62.587 192.036,62.716 191.608,63.112 191.608 C 63.400 191.608,63.636 191.372,63.636 191.084 C 63.636 190.758,63.967 190.559,64.510 190.559 C 65.326 190.559,65.385 190.443,65.385 188.811 C 65.385 187.850,65.542 187.063,65.734 187.063 C 65.927 187.063,66.084 186.827,66.084 186.538 C 66.084 186.189,66.434 186.014,67.133 186.014 C 68.019 186.014,68.182 185.878,68.182 185.140 C 68.182 184.402,68.019 184.266,67.133 184.266 C 66.556 184.266,66.084 184.097,66.084 183.891 C 66.084 183.407,65.194 182.517,64.710 182.517 C 64.504 182.517,64.336 182.281,64.336 181.993 C 64.336 181.667,64.005 181.469,63.462 181.469 C 62.762 181.469,62.587 181.294,62.587 180.594 C 62.587 179.895,62.413 179.720,61.713 179.720 C 61.014 179.720,60.839 179.545,60.839 178.846 C 60.839 178.147,60.664 177.972,59.965 177.972 C 59.266 177.972,59.091 177.797,59.091 177.098 C 59.091 176.554,58.893 176.224,58.566 176.224 C 58.198 176.224,58.042 175.852,58.042 174.975 C 58.042 173.753,57.415 172.727,56.668 172.727 C 56.462 172.727,56.294 172.491,56.294 172.203 C 56.294 171.914,56.058 171.678,55.769 171.678 C 55.481 171.678,55.245 171.510,55.245 171.304 C 55.245 170.820,54.355 169.930,53.871 169.930 C 53.665 169.930,53.497 169.761,53.497 169.555 C 53.497 169.071,52.607 168.182,52.123 168.182 C 51.917 168.182,51.748 168.013,51.748 167.807 C 51.748 167.061,50.722 166.434,49.500 166.434 C 48.337 166.434,48.252 166.360,48.252 165.347 C 48.252 164.525,48.124 164.310,47.727 164.462 C 47.408 164.585,47.203 164.463,47.203 164.150 C 47.203 163.867,47.045 163.636,46.853 163.636 C 46.661 163.636,46.503 163.007,46.503 162.238 L 46.503 160.839 45.105 160.839 L 43.706 160.839 43.706 159.091 C 43.706 157.459,43.648 157.343,42.832 157.343 C 42.045 157.343,41.958 157.203,41.958 155.944 C 41.958 154.685,41.871 154.545,41.084 154.545 C 40.184 154.545,40.091 154.353,40.199 152.710 C 40.253 151.893,40.127 151.748,39.362 151.748 C 38.867 151.748,38.462 151.591,38.462 151.399 C 38.462 151.206,38.226 151.049,37.937 151.049 C 37.611 151.049,37.413 150.719,37.413 150.175 C 37.413 149.631,37.214 149.301,36.888 149.301 C 36.538 149.301,36.364 148.951,36.364 148.252 C 36.364 147.675,36.206 147.203,36.014 147.203 C 35.822 147.203,35.664 146.809,35.664 146.329 C 35.664 145.785,35.466 145.455,35.140 145.455 C 34.818 145.455,34.615 145.128,34.615 144.610 C 34.615 144.145,34.419 143.685,34.178 143.587 C 33.837 143.449,33.844 143.338,34.209 143.081 C 34.951 142.560,34.567 141.102,33.654 140.972 C 32.782 140.848,32.562 140.210,33.392 140.210 C 33.718 140.210,33.916 139.880,33.916 139.336 C 33.916 138.598,33.753 138.462,32.867 138.462 C 31.935 138.462,31.818 138.345,31.818 137.413 C 31.818 136.836,31.661 136.364,31.469 136.364 C 31.276 136.364,31.119 135.970,31.119 135.490 C 31.119 135.009,31.276 134.615,31.469 134.615 C 31.661 134.615,31.818 134.222,31.818 133.741 C 31.818 133.042,31.643 132.867,30.944 132.867 C 30.245 132.867,30.070 132.692,30.070 131.993 C 30.070 131.449,30.268 131.119,30.594 131.119 C 30.921 131.119,31.119 130.789,31.119 130.245 C 31.119 129.545,30.944 129.371,30.245 129.371 C 29.429 129.371,29.371 129.254,29.371 127.622 C 29.371 126.661,29.528 125.874,29.720 125.874 C 29.913 125.874,30.070 125.399,30.070 124.819 C 30.070 123.867,29.984 123.785,29.196 123.982 L 28.322 124.202 28.322 115.073 L 28.322 105.944 29.196 105.944 C 29.895 105.944,30.070 105.769,30.070 105.070 C 30.070 104.589,29.913 104.196,29.720 104.196 C 29.528 104.196,29.371 103.566,29.371 102.797 C 29.371 101.538,29.458 101.399,30.245 101.399 C 30.944 101.399,31.119 101.224,31.119 100.524 C 31.119 99.981,30.921 99.650,30.594 99.650 C 30.216 99.650,30.070 99.262,30.070 98.252 C 30.070 97.242,30.216 96.853,30.594 96.853 C 30.973 96.853,31.119 96.465,31.119 95.455 C 31.119 94.196,31.206 94.056,31.993 94.056 C 32.692 94.056,32.867 93.881,32.867 93.182 C 32.867 92.638,32.669 92.308,32.343 92.308 C 31.414 92.308,31.785 91.659,32.780 91.544 C 33.543 91.456,33.741 91.253,33.741 90.559 C 33.741 90.047,33.561 89.721,33.304 89.773 C 33.064 89.821,32.867 89.624,32.867 89.336 C 32.867 89.047,33.103 88.811,33.392 88.811 C 33.718 88.811,33.916 88.481,33.916 87.937 C 33.916 87.238,34.091 87.063,34.790 87.063 C 35.490 87.063,35.664 86.888,35.664 86.189 C 35.664 85.708,35.822 85.315,36.014 85.315 C 36.206 85.315,36.364 84.843,36.364 84.266 C 36.364 83.566,36.538 83.217,36.888 83.217 C 37.214 83.217,37.413 82.887,37.413 82.343 C 37.413 81.799,37.611 81.469,37.937 81.469 C 38.263 81.469,38.462 81.138,38.462 80.594 C 38.462 80.114,38.619 79.720,38.811 79.720 C 39.003 79.720,39.161 78.934,39.161 77.972 C 39.161 76.651,39.289 76.224,39.685 76.224 C 39.974 76.224,40.210 75.988,40.210 75.699 C 40.210 75.373,40.540 75.175,41.084 75.175 C 41.871 75.175,41.958 75.035,41.958 73.776 C 41.958 72.517,42.045 72.378,42.832 72.378 C 43.313 72.378,43.706 72.220,43.706 72.028 C 43.706 71.836,43.942 71.678,44.231 71.678 C 44.599 71.678,44.755 71.306,44.755 70.430 C 44.755 69.025,45.402 68.182,46.479 68.182 C 47.123 68.182,47.203 67.971,47.203 66.259 C 47.203 64.441,47.250 64.336,48.077 64.336 C 48.776 64.336,48.951 64.161,48.951 63.462 C 48.951 62.756,49.124 62.587,49.850 62.587 C 50.772 62.587,51.748 61.881,51.748 61.214 C 51.748 61.008,51.984 60.839,52.273 60.839 C 52.599 60.839,52.797 60.509,52.797 59.965 C 52.797 59.266,52.972 59.091,53.671 59.091 C 54.371 59.091,54.545 58.916,54.545 58.217 C 54.545 57.517,54.720 57.343,55.420 57.343 C 55.963 57.343,56.294 57.145,56.294 56.818 C 56.294 56.530,56.517 56.294,56.789 56.294 C 57.061 56.294,57.349 56.101,57.427 55.865 C 57.509 55.621,58.047 55.473,58.680 55.521 C 59.476 55.582,59.790 55.456,59.790 55.075 C 59.790 54.784,60.026 54.545,60.315 54.545 C 60.693 54.545,60.839 54.157,60.839 53.147 L 60.839 51.748 62.587 51.748 C 64.219 51.748,64.336 51.690,64.336 50.874 C 64.336 50.087,64.476 50.000,65.734 50.000 C 66.993 50.000,67.133 49.913,67.133 49.126 C 67.133 48.339,67.273 48.252,68.531 48.252 C 69.790 48.252,69.930 48.164,69.930 47.378 C 69.930 46.612,70.082 46.503,71.154 46.503 C 72.226 46.503,72.378 46.395,72.378 45.629 C 72.378 45.085,72.576 44.755,72.902 44.755 C 73.191 44.755,73.427 44.519,73.427 44.231 C 73.427 43.834,73.854 43.706,75.175 43.706 C 76.496 43.706,76.923 43.578,76.923 43.182 C 76.923 42.855,77.253 42.657,77.797 42.657 C 78.278 42.657,78.671 42.500,78.671 42.308 C 78.671 42.115,79.143 41.958,79.720 41.958 C 80.420 41.958,80.769 41.783,80.769 41.434 C 80.769 41.107,81.099 40.909,81.643 40.909 C 82.343 40.909,82.517 40.734,82.517 40.035 C 82.517 39.336,82.692 39.161,83.392 39.161 C 83.872 39.161,84.266 39.003,84.266 38.811 C 84.266 38.619,84.659 38.462,85.140 38.462 C 85.684 38.462,86.014 38.263,86.014 37.937 C 86.014 37.649,86.250 37.413,86.538 37.413 C 86.827 37.413,87.063 37.649,87.063 37.937 C 87.063 38.263,87.393 38.462,87.937 38.462 C 88.675 38.462,88.811 38.298,88.811 37.413 C 88.811 36.527,88.947 36.364,89.685 36.364 C 90.166 36.364,90.559 36.206,90.559 36.014 C 90.559 35.822,91.189 35.664,91.958 35.664 C 92.968 35.664,93.357 35.519,93.357 35.140 C 93.357 34.851,93.514 34.615,93.706 34.615 C 93.899 34.615,94.056 34.851,94.056 35.140 C 94.056 35.466,94.386 35.664,94.930 35.664 C 95.629 35.664,95.804 35.490,95.804 34.790 C 95.804 34.003,95.944 33.916,97.203 33.916 C 98.213 33.916,98.601 33.770,98.601 33.392 C 98.601 33.065,98.932 32.867,99.476 32.867 C 100.019 32.867,100.350 33.065,100.350 33.392 C 100.350 33.718,100.680 33.916,101.224 33.916 C 101.962 33.916,102.098 33.753,102.098 32.867 C 102.098 31.935,102.214 31.818,103.147 31.818 C 103.846 31.818,104.196 31.993,104.196 32.343 C 104.196 32.669,104.526 32.867,105.070 32.867 C 105.769 32.867,105.944 32.692,105.944 31.993 C 105.944 31.294,106.119 31.119,106.818 31.119 C 107.299 31.119,107.692 31.276,107.692 31.469 C 107.692 31.661,108.322 31.818,109.091 31.818 C 110.350 31.818,110.490 31.731,110.490 30.944 C 110.490 30.158,110.630 30.070,111.877 30.070 C 112.967 30.070,113.222 30.183,113.064 30.594 C 112.911 30.991,113.127 31.119,113.949 31.119 C 114.874 31.119,115.035 30.990,115.035 30.245 C 115.035 29.409,115.128 29.371,117.133 29.371 C 118.298 29.371,119.231 29.526,119.231 29.720 C 119.231 29.913,119.860 30.070,120.629 30.070 C 121.399 30.070,122.028 29.913,122.028 29.720 C 122.028 29.528,122.264 29.371,122.552 29.371 C 122.841 29.371,123.077 29.135,123.077 28.846 C 123.077 28.390,124.611 28.322,134.790 28.322 L 146.503 28.322 146.503 29.196 C 146.503 29.962,146.655 30.070,147.727 30.070 C 148.400 30.070,148.951 29.913,148.951 29.720 C 148.951 29.523,149.942 29.371,151.224 29.371 C 153.415 29.371,153.497 29.402,153.497 30.245 C 153.497 30.944,153.671 31.119,154.371 31.119 C 154.915 31.119,155.245 30.921,155.245 30.594 C 155.245 30.216,155.633 30.070,156.643 30.070 C 157.902 30.070,158.042 30.157,158.042 30.944 C 158.042 31.731,158.182 31.818,159.441 31.818 C 160.210 31.818,160.839 31.661,160.839 31.469 C 160.839 31.276,161.233 31.119,161.713 31.119 C 162.413 31.119,162.587 31.294,162.587 31.993 C 162.587 32.692,162.762 32.867,163.462 32.867 C 164.005 32.867,164.336 32.669,164.336 32.343 C 164.336 31.991,164.688 31.818,165.406 31.818 C 166.398 31.818,166.464 31.894,166.310 32.867 C 166.127 34.029,167.637 34.483,168.055 33.392 C 168.322 32.698,169.930 32.698,169.930 33.392 C 169.930 33.758,170.299 33.916,171.154 33.916 C 172.318 33.916,172.601 34.248,172.419 35.402 C 172.396 35.546,172.850 35.664,173.427 35.664 C 174.126 35.664,174.476 35.490,174.476 35.140 C 174.476 34.851,174.633 34.615,174.825 34.615 C 175.017 34.615,175.175 34.851,175.175 35.140 C 175.175 35.519,175.563 35.664,176.573 35.664 C 177.343 35.664,177.972 35.822,177.972 36.014 C 177.972 36.206,178.365 36.364,178.846 36.364 C 179.584 36.364,179.720 36.527,179.720 37.413 C 179.720 38.298,179.856 38.462,180.594 38.462 C 181.138 38.462,181.469 38.263,181.469 37.937 C 181.469 37.649,181.705 37.413,181.993 37.413 C 182.281 37.413,182.517 37.649,182.517 37.937 C 182.517 38.263,182.848 38.462,183.392 38.462 C 183.872 38.462,184.266 38.619,184.266 38.811 C 184.266 39.003,184.659 39.161,185.140 39.161 C 185.839 39.161,186.014 39.336,186.014 40.035 C 186.014 40.734,186.189 40.909,186.888 40.909 C 187.432 40.909,187.762 41.107,187.762 41.434 C 187.762 42.190,189.414 42.113,189.637 41.346 C 189.740 40.993,189.787 41.103,189.750 41.608 C 189.697 42.322,189.862 42.503,190.647 42.593 C 191.197 42.656,191.608 42.918,191.608 43.205 C 191.608 43.573,192.072 43.706,193.357 43.706 C 194.632 43.706,195.105 43.840,195.105 44.202 C 195.105 44.474,195.269 44.752,195.470 44.819 C 195.671 44.886,195.862 45.292,195.894 45.722 C 195.944 46.383,196.157 46.503,197.277 46.503 C 198.457 46.503,198.601 46.599,198.601 47.378 C 198.601 48.164,198.741 48.252,200.000 48.252 C 201.259 48.252,201.399 48.339,201.399 49.126 C 201.399 49.913,201.538 50.000,202.797 50.000 C 204.056 50.000,204.196 50.087,204.196 50.874 C 204.196 51.640,204.347 51.748,205.420 51.748 C 206.274 51.748,206.643 51.906,206.643 52.273 C 206.643 52.561,206.879 52.797,207.168 52.797 C 207.463 52.797,207.692 53.110,207.692 53.511 C 207.692 54.566,208.909 55.724,209.778 55.496 C 210.176 55.392,210.724 55.529,210.995 55.800 C 211.267 56.072,211.657 56.294,211.863 56.294 C 212.069 56.294,212.238 56.503,212.238 56.759 C 212.238 57.015,212.631 57.435,213.112 57.692 C 213.593 57.950,213.986 58.370,213.986 58.626 C 213.986 58.881,214.155 59.091,214.361 59.091 C 214.845 59.091,215.734 59.980,215.734 60.465 C 215.734 60.671,215.970 60.839,216.259 60.839 C 216.547 60.839,216.783 61.008,216.783 61.214 C 216.783 61.698,217.673 62.587,218.157 62.587 C 218.363 62.587,218.531 62.756,218.531 62.962 C 218.531 63.446,219.421 64.336,219.905 64.336 C 220.111 64.336,220.280 64.965,220.280 65.734 C 220.280 66.744,220.425 67.133,220.804 67.133 C 221.093 67.133,221.329 67.369,221.329 67.657 C 221.329 67.955,221.642 68.182,222.053 68.182 C 223.130 68.182,223.776 69.025,223.776 70.430 C 223.776 71.589,223.852 71.678,224.846 71.678 C 225.470 71.678,225.825 71.824,225.699 72.028 C 225.580 72.220,225.729 72.378,226.028 72.378 C 226.328 72.378,226.573 72.614,226.573 72.902 C 226.573 73.191,226.809 73.427,227.098 73.427 C 227.424 73.427,227.622 73.757,227.622 74.301 C 227.622 74.781,227.780 75.175,227.972 75.175 C 228.164 75.175,228.322 75.411,228.322 75.699 C 228.322 75.988,228.558 76.224,228.846 76.224 C 229.242 76.224,229.371 76.651,229.371 77.972 C 229.371 78.934,229.528 79.720,229.720 79.720 C 229.913 79.720,230.070 80.114,230.070 80.594 C 230.070 81.138,230.268 81.469,230.594 81.469 C 230.921 81.469,231.119 81.799,231.119 82.343 C 231.119 83.008,231.307 83.223,231.906 83.244 C 232.338 83.260,232.496 83.351,232.255 83.448 C 231.645 83.695,231.708 84.945,232.343 85.188 C 232.631 85.299,232.867 85.766,232.867 86.226 C 232.867 86.886,233.052 87.063,233.741 87.063 C 234.441 87.063,234.615 87.238,234.615 87.937 C 234.615 88.481,234.814 88.811,235.140 88.811 C 235.428 88.811,235.664 89.042,235.664 89.325 C 235.664 89.637,235.459 89.760,235.140 89.637 C 234.743 89.485,234.615 89.700,234.615 90.522 C 234.615 91.448,234.745 91.608,235.490 91.608 C 235.970 91.608,236.364 91.766,236.364 91.958 C 236.364 92.150,236.206 92.308,236.014 92.308 C 235.822 92.308,235.664 92.701,235.664 93.182 C 235.664 93.881,235.839 94.056,236.538 94.056 C 237.325 94.056,237.413 94.196,237.413 95.455 C 237.413 96.465,237.558 96.853,237.937 96.853 C 238.316 96.853,238.462 97.242,238.462 98.252 C 238.462 99.262,238.316 99.650,237.937 99.650 C 237.611 99.650,237.413 99.981,237.413 100.524 C 237.413 101.224,237.587 101.399,238.287 101.399 C 239.073 101.399,239.161 101.538,239.161 102.797 C 239.161 103.566,239.003 104.196,238.811 104.196 C 238.619 104.196,238.462 104.747,238.462 105.420 C 238.462 106.492,238.570 106.643,239.336 106.643 C 240.195 106.643,240.210 106.690,240.210 109.441 C 240.210 112.191,240.224 112.238,241.084 112.238 C 241.783 112.238,241.958 112.063,241.958 111.364 C 241.958 110.577,242.098 110.490,243.357 110.490 C 244.126 110.490,244.755 110.647,244.755 110.839 C 244.755 111.031,245.149 111.189,245.629 111.189 C 246.329 111.189,246.503 111.014,246.503 110.315 C 246.503 109.499,246.620 109.441,248.252 109.441 C 249.573 109.441,250.000 109.569,250.000 109.965 C 250.000 110.291,250.330 110.490,250.874 110.490 C 251.573 110.490,251.748 110.315,251.748 109.615 C 251.748 108.756,251.795 108.741,254.545 108.741 C 256.177 108.741,257.343 108.887,257.343 109.091 C 257.343 109.283,258.129 109.441,259.091 109.441 C 260.723 109.441,260.839 109.382,260.839 108.566 C 260.839 107.699,260.862 107.692,263.986 107.692 C 266.550 107.692,267.133 107.789,267.133 108.217 C 267.133 108.543,267.463 108.741,268.007 108.741 C 268.736 108.741,268.881 108.575,268.881 107.738 C 268.881 106.918,268.737 106.742,268.094 106.776 C 267.351 106.816,267.302 106.670,267.206 104.108 C 267.121 101.856,267.194 101.399,267.643 101.399 C 267.985 101.399,268.182 101.079,268.182 100.524 C 268.182 99.786,268.019 99.650,267.133 99.650 C 266.095 99.650,266.084 99.631,266.084 97.727 C 266.084 96.251,266.206 95.804,266.608 95.804 C 266.935 95.804,267.133 95.474,267.133 94.930 C 267.133 94.231,266.958 94.056,266.259 94.056 C 265.559 94.056,265.385 93.881,265.385 93.182 C 265.385 92.701,265.542 92.308,265.734 92.308 C 265.927 92.308,266.084 91.914,266.084 91.434 C 266.084 90.734,265.909 90.559,265.210 90.559 C 264.510 90.559,264.336 90.385,264.336 89.685 C 264.336 89.141,264.534 88.811,264.860 88.811 C 265.186 88.811,265.385 88.481,265.385 87.937 C 265.385 87.238,265.210 87.063,264.510 87.063 C 263.724 87.063,263.636 86.923,263.636 85.664 C 263.636 84.654,263.491 84.266,263.112 84.266 C 262.733 84.266,262.587 83.877,262.587 82.867 C 262.587 81.857,262.442 81.469,262.063 81.469 C 261.774 81.469,261.538 81.311,261.538 81.119 C 261.538 80.927,261.774 80.769,262.063 80.769 C 262.389 80.769,262.587 80.439,262.587 79.895 C 262.587 79.196,262.413 79.021,261.713 79.021 C 260.968 79.021,260.839 78.860,260.839 77.935 C 260.839 77.113,260.712 76.897,260.315 77.050 C 259.995 77.172,259.790 77.050,259.790 76.737 C 259.790 76.455,260.026 76.224,260.315 76.224 C 260.641 76.224,260.839 75.894,260.839 75.350 C 260.839 74.806,260.641 74.476,260.315 74.476 C 259.965 74.476,259.790 74.126,259.790 73.427 C 259.790 72.541,259.654 72.378,258.916 72.378 C 258.217 72.378,258.042 72.203,258.042 71.503 C 258.042 71.023,257.885 70.629,257.692 70.629 C 257.500 70.629,257.343 70.236,257.343 69.755 C 257.343 69.211,257.145 68.881,256.818 68.881 C 256.492 68.881,256.294 68.551,256.294 68.007 C 256.294 67.463,256.096 67.133,255.769 67.133 C 255.481 67.133,255.245 66.888,255.245 66.588 C 255.245 66.288,255.087 66.140,254.895 66.259 C 254.703 66.378,254.545 66.230,254.545 65.930 C 254.545 65.630,254.703 65.385,254.895 65.385 C 255.087 65.385,255.245 64.991,255.245 64.510 C 255.245 63.811,255.070 63.636,254.371 63.636 C 253.827 63.636,253.497 63.438,253.497 63.112 C 253.497 62.823,253.339 62.587,253.147 62.587 C 252.955 62.587,252.797 61.801,252.797 60.839 C 252.797 59.207,252.739 59.091,251.923 59.091 C 251.136 59.091,251.049 58.951,251.049 57.692 L 251.049 56.294 249.650 56.294 C 248.881 56.294,248.252 56.136,248.252 55.944 C 248.252 55.752,248.016 55.594,247.727 55.594 C 247.439 55.594,247.203 55.358,247.203 55.070 C 247.203 54.781,247.439 54.545,247.727 54.545 C 248.054 54.545,248.252 54.215,248.252 53.671 C 248.252 52.972,248.077 52.797,247.378 52.797 C 246.834 52.797,246.503 52.599,246.503 52.273 C 246.503 51.984,246.267 51.748,245.979 51.748 C 245.604 51.748,245.455 51.366,245.455 50.406 C 245.455 49.111,245.411 49.063,244.216 49.018 C 242.809 48.965,241.958 48.290,241.958 47.228 C 241.958 46.817,241.731 46.503,241.434 46.503 C 241.065 46.503,240.909 46.132,240.909 45.257 C 240.909 44.018,237.761 40.210,236.736 40.210 C 236.531 40.210,236.364 39.974,236.364 39.685 C 236.364 39.359,236.033 39.161,235.490 39.161 C 234.790 39.161,234.615 38.986,234.615 38.287 C 234.615 37.806,234.458 37.413,234.266 37.413 C 234.073 37.413,233.916 37.167,233.916 36.867 C 233.916 36.568,233.758 36.420,233.564 36.540 C 233.370 36.660,233.117 36.512,233.002 36.211 C 232.887 35.910,232.573 35.664,232.305 35.664 C 232.037 35.664,231.818 35.428,231.818 35.140 C 231.818 34.750,231.407 34.615,230.220 34.615 C 228.286 34.615,227.622 34.041,227.622 32.368 C 227.622 31.491,227.466 31.119,227.098 31.119 C 226.809 31.119,226.573 30.872,226.573 30.569 C 226.573 30.214,226.296 30.042,225.787 30.084 C 223.391 30.278,223.077 30.134,223.077 28.846 C 223.077 27.652,223.044 27.622,221.678 27.622 C 220.668 27.622,220.280 27.477,220.280 27.098 C 220.280 26.772,219.949 26.573,219.406 26.573 C 218.836 26.573,218.531 26.378,218.531 26.012 C 218.531 25.656,218.339 25.523,218.007 25.651 C 217.688 25.774,217.483 25.651,217.483 25.339 C 217.483 25.056,217.325 24.825,217.133 24.825 C 216.941 24.825,216.783 24.432,216.783 23.951 C 216.783 23.108,216.702 23.077,214.510 23.077 L 212.238 23.077 212.238 21.678 L 212.238 20.280 210.315 20.280 C 208.838 20.280,208.392 20.158,208.392 19.755 C 208.392 19.467,208.234 19.231,208.042 19.231 C 207.850 19.231,207.692 18.837,207.692 18.357 C 207.692 17.657,207.517 17.483,206.818 17.483 C 206.337 17.483,205.944 17.325,205.944 17.133 C 205.944 16.941,205.551 16.783,205.070 16.783 C 204.526 16.783,204.196 16.585,204.196 16.259 C 204.196 15.905,203.842 15.734,203.109 15.734 C 202.287 15.734,202.072 15.862,202.224 16.259 C 202.347 16.578,202.225 16.783,201.912 16.783 C 201.630 16.783,201.399 16.547,201.399 16.259 C 201.399 15.970,201.163 15.734,200.874 15.734 C 200.548 15.734,200.350 15.404,200.350 14.860 C 200.350 14.161,200.175 13.986,199.476 13.986 C 198.906 13.986,198.601 13.790,198.601 13.424 C 198.601 13.073,198.408 12.936,198.087 13.060 C 197.804 13.168,197.343 13.028,197.063 12.747 C 196.394 12.079,195.105 12.088,195.105 12.762 C 195.105 13.051,194.869 13.287,194.580 13.287 C 194.292 13.287,194.056 13.051,194.056 12.762 C 194.056 12.436,193.726 12.238,193.182 12.238 C 192.483 12.238,192.308 12.063,192.308 11.364 C 192.308 10.664,192.133 10.490,191.434 10.490 C 190.953 10.490,190.559 10.647,190.559 10.839 C 190.559 11.031,190.323 11.189,190.035 11.189 C 189.747 11.189,189.510 11.031,189.510 10.839 C 189.510 10.647,189.117 10.490,188.636 10.490 C 187.898 10.490,187.762 10.326,187.762 9.441 C 187.762 8.290,186.533 7.892,186.140 8.916 C 185.810 9.778,184.965 9.526,184.965 8.566 C 184.965 7.867,184.790 7.692,184.091 7.692 C 183.610 7.692,183.217 7.850,183.217 8.042 C 183.217 8.234,183.059 8.392,182.867 8.392 C 182.675 8.392,182.517 7.998,182.517 7.517 C 182.517 6.818,182.343 6.643,181.643 6.643 C 181.099 6.643,180.769 6.841,180.769 7.168 C 180.769 7.456,180.533 7.692,180.245 7.692 C 179.918 7.692,179.720 7.362,179.720 6.818 C 179.720 6.119,179.545 5.944,178.846 5.944 C 178.365 5.944,177.972 6.101,177.972 6.294 C 177.972 6.486,177.579 6.643,177.098 6.643 C 176.617 6.643,176.224 6.486,176.224 6.294 C 176.224 6.101,175.594 5.944,174.825 5.944 C 173.566 5.944,173.427 5.857,173.427 5.070 C 173.427 4.371,173.252 4.196,172.552 4.196 C 172.072 4.196,171.678 4.353,171.678 4.545 C 171.678 4.738,171.049 4.895,170.280 4.895 C 169.510 4.895,168.881 4.738,168.881 4.545 C 168.881 4.353,168.094 4.196,167.133 4.196 C 165.438 4.196,165.385 4.165,165.385 3.184 C 165.385 2.324,165.253 2.179,164.511 2.222 C 164.030 2.250,163.637 2.469,163.637 2.710 C 163.636 3.006,163.019 3.147,161.713 3.147 C 159.895 3.147,159.790 3.099,159.790 2.273 C 159.790 1.573,159.615 1.399,158.916 1.399 C 158.372 1.399,158.042 1.597,158.042 1.923 C 158.042 2.319,157.615 2.448,156.294 2.448 C 154.584 2.448,154.545 2.424,154.545 1.399 C 154.545 0.373,154.507 0.350,152.797 0.350 C 151.476 0.350,151.049 0.478,151.049 0.874 C 151.049 1.307,150.408 1.399,147.378 1.399 C 144.114 1.399,143.706 1.331,143.706 0.787 C 143.706 0.219,142.993 0.174,133.741 0.159 C 124.384 0.145,123.776 0.182,123.776 0.771 M264.336 123.077 L 264.336 124.126 260.839 124.126 C 257.964 124.126,257.343 124.033,257.343 123.601 C 257.343 123.223,256.954 123.077,255.944 123.077 C 254.685 123.077,254.545 123.164,254.545 123.951 C 254.545 124.881,251.280 125.345,250.984 124.457 C 250.652 123.460,248.252 123.814,248.252 124.860 C 248.252 125.810,248.163 125.874,246.853 125.874 C 245.843 125.874,245.455 125.728,245.455 125.350 C 245.455 125.023,245.124 124.825,244.580 124.825 C 243.881 124.825,243.706 125.000,243.706 125.699 C 243.706 126.399,243.531 126.573,242.832 126.573 C 242.351 126.573,241.958 126.416,241.958 126.224 C 241.958 126.031,241.565 125.874,241.084 125.874 C 240.385 125.874,240.210 126.049,240.210 126.748 C 240.210 127.563,240.092 127.622,238.482 127.622 C 237.532 127.622,236.657 127.780,236.538 127.972 C 236.420 128.164,235.938 128.322,235.469 128.322 C 234.999 128.322,234.615 128.164,234.615 127.972 C 234.615 127.780,234.222 127.622,233.741 127.622 C 233.042 127.622,232.867 127.797,232.867 128.497 C 232.867 129.280,232.725 129.371,231.498 129.371 C 230.744 129.371,230.076 129.523,230.012 129.709 C 229.948 129.895,229.384 130.086,228.759 130.133 C 228.109 130.182,227.622 130.412,227.622 130.669 C 227.622 130.961,227.131 131.119,226.224 131.119 C 225.214 131.119,224.825 131.265,224.825 131.643 C 224.825 131.932,224.589 132.168,224.301 132.168 C 224.012 132.168,223.776 131.932,223.776 131.643 C 223.776 131.317,223.446 131.119,222.902 131.119 C 222.203 131.119,222.028 131.294,222.028 131.993 C 222.028 132.692,221.853 132.867,221.154 132.867 C 220.610 132.867,220.280 133.065,220.280 133.392 C 220.280 133.680,220.044 133.916,219.755 133.916 C 219.467 133.916,219.231 133.680,219.231 133.392 C 219.231 133.065,218.901 132.867,218.357 132.867 C 217.657 132.867,217.483 133.042,217.483 133.741 C 217.483 134.441,217.308 134.615,216.608 134.615 C 216.064 134.615,215.734 134.814,215.734 135.140 C 215.734 135.466,215.404 135.664,214.860 135.664 C 214.290 135.664,213.986 135.860,213.986 136.227 C 213.986 136.652,213.773 136.736,213.112 136.570 C 212.467 136.408,212.238 136.489,212.238 136.881 C 212.238 137.174,212.002 137.413,211.713 137.413 C 211.425 137.413,211.189 137.177,211.189 136.888 C 211.189 136.562,210.859 136.364,210.315 136.364 C 209.771 136.364,209.441 136.562,209.441 136.888 C 209.441 137.214,209.110 137.413,208.566 137.413 C 207.867 137.413,207.692 137.587,207.692 138.287 C 207.692 138.831,207.494 139.161,207.168 139.161 C 206.879 139.161,206.643 139.397,206.643 139.685 C 206.643 140.012,206.313 140.210,205.769 140.210 C 205.288 140.210,204.895 140.367,204.895 140.559 C 204.895 140.752,204.108 140.909,203.147 140.909 C 201.437 140.909,201.399 140.932,201.399 141.958 C 201.399 142.657,201.224 143.007,200.874 143.007 C 200.586 143.007,200.350 143.164,200.350 143.357 C 200.350 143.549,199.563 143.706,198.601 143.706 C 196.970 143.706,196.853 143.765,196.853 144.580 C 196.853 145.139,196.656 145.455,196.308 145.455 C 196.008 145.455,195.843 145.584,195.940 145.742 C 196.202 146.164,194.859 147.203,194.052 147.203 C 193.667 147.203,193.357 147.437,193.357 147.727 C 193.357 148.106,192.968 148.252,191.958 148.252 C 190.699 148.252,190.559 148.339,190.559 149.126 C 190.559 149.696,190.364 150.000,189.998 150.000 C 189.642 150.000,189.509 150.192,189.637 150.524 C 189.795 150.936,189.540 151.049,188.451 151.049 C 187.687 151.049,187.063 151.206,187.063 151.399 C 187.063 151.591,186.827 151.748,186.538 151.748 C 186.183 151.748,186.014 152.104,186.014 152.855 C 186.014 153.464,185.922 153.871,185.810 153.759 C 185.561 153.510,184.266 154.757,184.266 155.245 C 184.266 155.437,184.030 155.594,183.741 155.594 C 183.453 155.594,183.217 155.752,183.217 155.944 C 183.217 156.136,182.666 156.294,181.993 156.294 C 181.138 156.294,180.769 156.452,180.769 156.818 C 180.769 157.107,180.614 157.343,180.424 157.343 C 179.886 157.343,178.686 158.482,178.885 158.804 C 178.982 158.962,178.884 159.091,178.665 159.091 C 178.160 159.091,176.224 161.011,176.224 161.512 C 176.224 161.719,176.055 161.888,175.849 161.888 C 175.184 161.888,174.424 162.915,174.489 163.724 C 174.598 165.064,174.494 165.385,173.951 165.385 C 173.663 165.385,173.427 165.621,173.427 165.909 C 173.427 166.198,173.181 166.434,172.881 166.434 C 172.582 166.434,172.434 166.591,172.552 166.783 C 172.671 166.976,172.523 167.133,172.223 167.133 C 171.924 167.133,171.678 167.369,171.678 167.657 C 171.678 167.984,171.348 168.182,170.804 168.182 C 170.323 168.182,169.930 168.339,169.930 168.531 C 169.930 168.724,169.694 168.881,169.406 168.881 C 169.027 168.881,168.881 169.270,168.881 170.280 C 168.881 171.049,168.724 171.678,168.531 171.678 C 168.339 171.678,168.182 171.904,168.182 172.180 C 168.182 172.466,167.771 172.728,167.220 172.791 C 166.309 172.896,166.261 172.993,166.293 174.650 C 166.312 175.612,166.261 176.123,166.180 175.787 C 165.847 174.404,164.336 175.049,164.336 176.573 C 164.336 177.832,164.248 177.972,163.462 177.972 C 162.675 177.972,162.587 178.112,162.587 179.371 C 162.587 180.629,162.500 180.769,161.713 180.769 C 160.897 180.769,160.839 180.886,160.839 182.517 C 160.839 183.838,160.711 184.266,160.315 184.266 C 159.988 184.266,159.790 184.596,159.790 185.140 C 159.790 185.621,159.633 186.014,159.441 186.014 C 159.248 186.014,159.091 186.481,159.091 187.052 C 159.091 187.831,158.960 188.040,158.566 187.889 C 158.170 187.736,158.042 187.952,158.042 188.774 C 158.042 189.371,157.885 189.860,157.692 189.860 C 157.500 189.860,157.343 190.253,157.343 190.734 C 157.343 191.278,157.145 191.608,156.818 191.608 C 156.492 191.608,156.294 191.939,156.294 192.483 C 156.294 193.182,156.119 193.357,155.420 193.357 C 154.720 193.357,154.545 193.531,154.545 194.231 C 154.545 194.775,154.744 195.105,155.070 195.105 C 155.358 195.105,155.594 195.341,155.594 195.629 C 155.594 195.918,155.358 196.154,155.070 196.154 C 154.744 196.154,154.545 196.484,154.545 197.028 C 154.545 197.727,154.371 197.902,153.671 197.902 C 152.972 197.902,152.797 198.077,152.797 198.776 C 152.797 199.257,152.955 199.650,153.147 199.650 C 153.339 199.650,153.497 199.903,153.497 200.213 C 153.497 200.638,153.283 200.722,152.622 200.556 C 151.835 200.358,151.748 200.441,151.748 201.392 C 151.748 202.097,151.922 202.448,152.273 202.448 C 152.561 202.448,152.797 202.605,152.797 202.797 C 152.797 202.990,152.404 203.147,151.923 203.147 C 151.224 203.147,151.049 203.322,151.049 204.021 C 151.049 204.502,151.206 204.895,151.399 204.895 C 151.591 204.895,151.748 205.367,151.748 205.944 C 151.748 206.830,151.612 206.993,150.874 206.993 C 150.175 206.993,150.000 207.168,150.000 207.867 C 150.000 208.411,150.198 208.741,150.524 208.741 C 150.851 208.741,151.049 209.071,151.049 209.615 C 151.049 210.340,150.881 210.490,150.070 210.490 C 149.259 210.490,149.091 210.639,149.091 211.364 C 149.091 211.848,149.294 212.238,149.545 212.238 C 149.858 212.238,150.000 212.785,150.000 213.986 C 150.000 215.618,149.942 215.734,149.126 215.734 C 148.427 215.734,148.252 215.909,148.252 216.608 C 148.252 217.089,148.409 217.483,148.601 217.483 C 148.805 217.483,148.951 218.648,148.951 220.280 C 148.951 223.030,148.936 223.077,148.077 223.077 C 147.261 223.077,147.203 223.193,147.203 224.825 C 147.203 226.146,147.331 226.573,147.727 226.573 C 148.160 226.573,148.252 227.214,148.252 230.245 C 148.252 233.275,148.160 233.916,147.727 233.916 C 147.315 233.916,147.203 234.402,147.203 236.189 C 147.203 238.380,147.234 238.462,148.077 238.462 C 148.932 238.462,148.951 238.520,148.951 241.084 C 148.951 242.599,148.803 243.706,148.601 243.706 C 148.409 243.706,148.252 244.100,148.252 244.580 C 148.252 245.280,148.427 245.455,149.126 245.455 C 149.952 245.455,150.000 245.559,150.000 247.378 C 150.000 248.722,149.863 249.301,149.545 249.301 C 149.294 249.301,149.091 249.691,149.091 250.175 C 149.091 250.899,149.259 251.049,150.070 251.049 C 150.881 251.049,151.049 251.199,151.049 251.923 C 151.049 252.467,150.851 252.797,150.524 252.797 C 150.198 252.797,150.000 253.127,150.000 253.671 C 150.000 254.371,150.175 254.545,150.874 254.545 C 151.573 254.545,151.748 254.720,151.748 255.420 C 151.748 255.900,151.591 256.294,151.399 256.294 C 151.206 256.294,151.049 256.687,151.049 257.168 C 151.049 257.867,151.224 258.042,151.923 258.042 C 152.467 258.042,152.797 258.240,152.797 258.566 C 152.797 258.855,152.561 259.091,152.273 259.091 C 151.946 259.091,151.748 259.421,151.748 259.965 C 151.748 260.664,151.923 260.839,152.622 260.839 C 153.166 260.839,153.497 261.037,153.497 261.364 C 153.497 261.652,153.339 261.888,153.147 261.888 C 152.955 261.888,152.797 262.281,152.797 262.762 C 152.797 263.462,152.972 263.636,153.671 263.636 C 154.371 263.636,154.545 263.811,154.545 264.510 C 154.545 265.054,154.744 265.385,155.070 265.385 C 155.358 265.385,155.594 265.621,155.594 265.909 C 155.594 266.198,155.358 266.434,155.070 266.434 C 154.744 266.434,154.545 266.764,154.545 267.308 C 154.545 268.007,154.720 268.182,155.420 268.182 C 156.119 268.182,156.294 268.357,156.294 269.056 C 156.294 269.600,156.492 269.930,156.818 269.930 C 157.145 269.930,157.343 270.260,157.343 270.804 C 157.343 271.285,157.500 271.678,157.692 271.678 C 157.885 271.678,158.042 272.072,158.042 272.552 C 158.042 273.096,158.240 273.427,158.566 273.427 C 158.888 273.427,159.091 273.754,159.091 274.272 C 159.091 274.736,159.288 275.182,159.528 275.263 C 159.807 275.356,159.956 276.061,159.939 277.215 C 159.921 278.493,160.049 279.021,160.377 279.021 C 160.637 279.021,160.839 279.403,160.839 279.895 C 160.839 280.594,161.014 280.769,161.713 280.769 C 162.500 280.769,162.587 280.909,162.587 282.168 C 162.587 283.427,162.675 283.566,163.462 283.566 C 164.224 283.566,164.336 283.719,164.336 284.767 C 164.336 285.817,164.456 285.981,165.297 286.078 C 166.168 286.178,166.253 286.312,166.199 287.500 C 166.144 288.729,166.204 288.811,167.161 288.811 C 167.835 288.811,168.182 288.989,168.182 289.336 C 168.182 289.624,168.339 289.860,168.531 289.860 C 168.724 289.860,168.881 290.411,168.881 291.084 C 168.881 291.939,169.039 292.308,169.406 292.308 C 169.694 292.308,169.930 292.544,169.930 292.832 C 169.930 293.123,170.240 293.357,170.625 293.357 C 171.432 293.357,172.775 294.395,172.514 294.818 C 172.416 294.976,172.582 295.105,172.881 295.105 C 173.181 295.105,173.427 295.341,173.427 295.629 C 173.427 295.918,173.663 296.154,173.951 296.154 C 174.317 296.154,174.476 296.523,174.476 297.378 C 174.476 298.051,174.633 298.601,174.825 298.601 C 175.017 298.601,175.175 298.837,175.175 299.126 C 175.175 299.414,175.411 299.650,175.699 299.650 C 175.988 299.650,176.224 299.819,176.224 300.025 C 176.224 300.509,177.113 301.399,177.597 301.399 C 177.803 301.399,177.972 301.567,177.972 301.773 C 177.972 302.257,178.862 303.147,179.346 303.147 C 179.552 303.147,179.720 303.383,179.720 303.671 C 179.720 303.960,179.956 304.196,180.245 304.196 C 180.533 304.196,180.769 304.353,180.769 304.545 C 180.769 304.738,181.320 304.895,181.993 304.895 C 182.848 304.895,183.217 305.053,183.217 305.420 C 183.217 305.708,183.453 305.944,183.741 305.944 C 184.030 305.944,184.266 306.153,184.266 306.409 C 184.266 306.665,184.659 307.085,185.140 307.343 C 185.688 307.636,186.014 308.114,186.014 308.626 C 186.014 309.117,186.222 309.441,186.538 309.441 C 186.827 309.441,187.063 309.677,187.063 309.965 C 187.063 310.321,187.427 310.493,188.199 310.501 C 189.677 310.515,190.559 311.211,190.559 312.364 C 190.559 313.207,190.680 313.287,191.958 313.287 C 192.727 313.287,193.357 313.444,193.357 313.636 C 193.357 313.829,193.750 313.986,194.231 313.986 C 194.775 313.986,195.105 314.184,195.105 314.510 C 195.105 314.799,195.350 315.035,195.650 315.035 C 195.950 315.035,196.098 315.192,195.979 315.385 C 195.853 315.589,196.208 315.734,196.833 315.734 C 197.550 315.734,197.902 315.907,197.902 316.259 C 197.902 316.547,198.059 316.783,198.252 316.783 C 198.444 316.783,198.601 317.019,198.601 317.308 C 198.601 317.634,198.932 317.832,199.476 317.832 C 199.956 317.832,200.350 317.990,200.350 318.182 C 200.350 318.374,200.586 318.531,200.874 318.531 C 201.200 318.531,201.399 318.862,201.399 319.406 C 201.399 320.221,201.515 320.280,203.147 320.280 C 204.468 320.280,204.895 320.408,204.895 320.804 C 204.895 321.131,205.225 321.329,205.769 321.329 C 206.250 321.329,206.643 321.486,206.643 321.678 C 206.643 321.871,206.879 322.028,207.168 322.028 C 207.517 322.028,207.692 322.378,207.692 323.077 C 207.692 323.963,207.828 324.126,208.566 324.126 C 209.110 324.126,209.441 323.928,209.441 323.601 C 209.441 323.313,209.677 323.077,209.965 323.077 C 210.253 323.077,210.490 323.313,210.490 323.601 C 210.490 323.928,210.820 324.126,211.364 324.126 C 211.844 324.126,212.238 324.283,212.238 324.476 C 212.238 324.668,212.631 324.825,213.112 324.825 C 213.656 324.825,213.986 325.023,213.986 325.350 C 213.986 325.676,214.316 325.874,214.860 325.874 C 215.341 325.874,215.734 326.031,215.734 326.224 C 215.734 326.416,216.128 326.573,216.608 326.573 C 217.308 326.573,217.483 326.748,217.483 327.448 C 217.483 328.147,217.657 328.322,218.357 328.322 C 218.837 328.322,219.231 328.164,219.231 327.972 C 219.231 327.780,219.467 327.622,219.755 327.622 C 220.044 327.622,220.280 327.780,220.280 327.972 C 220.280 328.164,220.673 328.322,221.154 328.322 C 221.892 328.322,222.028 328.485,222.028 329.371 C 222.028 330.256,222.164 330.420,222.902 330.420 C 223.446 330.420,223.776 330.221,223.776 329.895 C 223.776 329.607,224.012 329.371,224.301 329.371 C 224.589 329.371,224.825 329.607,224.825 329.895 C 224.825 330.274,225.214 330.420,226.224 330.420 C 226.993 330.420,227.622 330.577,227.622 330.769 C 227.622 330.962,228.173 331.119,228.846 331.119 C 229.701 331.119,230.070 331.277,230.070 331.643 C 230.070 332.022,230.458 332.168,231.469 332.168 C 232.727 332.168,232.867 332.255,232.867 333.042 C 232.867 333.741,233.042 333.916,233.741 333.916 C 234.285 333.916,234.615 333.718,234.615 333.392 C 234.615 332.489,236.296 332.732,236.427 333.654 C 236.542 334.468,238.462 335.067,238.462 334.289 C 238.462 334.084,238.855 333.916,239.336 333.916 C 240.035 333.916,240.210 334.091,240.210 334.790 C 240.210 335.490,240.385 335.664,241.084 335.664 C 241.628 335.664,241.958 335.466,241.958 335.140 C 241.958 334.814,242.288 334.615,242.832 334.615 C 243.570 334.615,243.706 334.779,243.706 335.664 C 243.706 336.550,243.842 336.713,244.580 336.713 C 245.124 336.713,245.455 336.515,245.455 336.189 C 245.455 335.810,245.843 335.664,246.853 335.664 C 248.112 335.664,248.252 335.752,248.252 336.538 C 248.252 337.325,248.392 337.413,249.650 337.413 C 250.420 337.413,251.049 337.255,251.049 337.063 C 251.049 336.871,251.836 336.713,252.797 336.713 C 254.429 336.713,254.545 336.772,254.545 337.587 C 254.545 338.374,254.685 338.462,255.944 338.462 C 256.954 338.462,257.343 338.316,257.343 337.937 C 257.343 337.506,257.964 337.413,260.839 337.413 C 263.714 337.413,264.336 337.506,264.336 337.937 C 264.336 338.226,264.572 338.462,264.860 338.462 C 265.149 338.462,265.385 338.619,265.385 338.811 C 265.385 339.008,266.375 339.161,267.657 339.161 C 268.939 339.161,269.930 339.008,269.930 338.811 C 269.930 338.597,271.620 338.462,274.301 338.462 C 276.981 338.462,278.671 338.597,278.671 338.811 C 278.671 339.008,279.662 339.161,280.944 339.161 C 283.135 339.161,283.217 339.129,283.217 338.287 L 283.217 337.413 286.888 337.413 C 289.918 337.413,290.559 337.504,290.559 337.937 C 290.559 338.263,290.890 338.462,291.434 338.462 C 291.977 338.462,292.308 338.263,292.308 337.937 C 292.308 337.649,292.544 337.413,292.832 337.413 C 293.121 337.413,293.357 337.255,293.357 337.063 C 293.357 336.871,294.143 336.713,295.105 336.713 C 296.066 336.713,296.853 336.871,296.853 337.063 C 296.853 337.255,297.247 337.413,297.727 337.413 C 298.427 337.413,298.601 337.238,298.601 336.538 C 298.601 335.712,298.706 335.664,300.524 335.664 C 301.876 335.664,302.422 335.794,302.360 336.101 C 302.309 336.358,302.634 336.538,303.147 336.538 C 303.841 336.538,304.044 336.340,304.132 335.577 C 304.255 334.509,305.944 334.101,305.944 335.140 C 305.944 335.466,306.274 335.664,306.818 335.664 C 307.517 335.664,307.692 335.490,307.692 334.790 C 307.692 334.091,307.867 333.916,308.566 333.916 C 309.047 333.916,309.441 334.073,309.441 334.266 C 309.441 334.458,309.834 334.615,310.315 334.615 C 311.014 334.615,311.189 334.441,311.189 333.741 C 311.189 332.882,311.235 332.867,313.986 332.867 C 316.737 332.867,316.783 332.882,316.783 333.741 C 316.783 334.441,316.958 334.615,317.657 334.615 C 318.138 334.615,318.531 334.458,318.531 334.266 C 318.531 334.073,319.161 333.916,319.930 333.916 C 321.189 333.916,321.329 334.003,321.329 334.790 C 321.329 335.490,321.503 335.664,322.203 335.664 C 322.747 335.664,323.077 335.466,323.077 335.140 C 323.077 334.764,323.460 334.615,324.428 334.615 C 325.678 334.615,325.775 334.687,325.739 335.577 C 325.693 336.688,327.107 337.202,327.487 336.213 C 327.886 335.172,331.119 335.461,331.119 336.538 C 331.119 337.238,331.294 337.413,331.993 337.413 C 332.474 337.413,332.867 337.255,332.867 337.063 C 332.867 336.871,333.497 336.713,334.266 336.713 C 335.524 336.713,335.664 336.801,335.664 337.587 C 335.664 338.287,335.839 338.462,336.538 338.462 C 337.082 338.462,337.413 338.263,337.413 337.937 C 337.413 337.558,337.801 337.413,338.811 337.413 C 340.070 337.413,340.210 337.500,340.210 338.287 C 340.210 338.986,340.385 339.161,341.084 339.161 C 341.565 339.161,341.958 339.003,341.958 338.811 C 341.958 338.619,342.745 338.462,343.706 338.462 C 345.338 338.462,345.455 338.520,345.455 339.336 C 345.455 340.035,345.629 340.210,346.329 340.210 C 346.873 340.210,347.203 340.012,347.203 339.685 C 347.203 339.307,347.591 339.161,348.601 339.161 C 349.922 339.161,350.000 339.219,350.000 340.210 C 350.000 341.096,350.136 341.259,350.874 341.259 C 351.418 341.259,351.748 341.061,351.748 340.734 C 351.748 340.355,352.137 340.210,353.147 340.210 C 354.406 340.210,354.545 340.297,354.545 341.084 C 354.545 341.783,354.720 341.958,355.420 341.958 C 355.900 341.958,356.294 341.801,356.294 341.608 C 356.294 341.416,357.080 341.259,358.042 341.259 C 359.750 341.259,359.966 341.418,359.816 342.570 C 359.784 342.820,360.140 343.007,360.649 343.007 C 361.207 343.007,361.538 342.811,361.538 342.483 C 361.538 342.104,361.927 341.958,362.937 341.958 C 364.196 341.958,364.336 342.045,364.336 342.832 C 364.336 343.531,364.510 343.706,365.210 343.706 C 365.691 343.706,366.084 343.549,366.084 343.357 C 366.084 343.164,366.713 343.007,367.483 343.007 C 368.741 343.007,368.881 343.094,368.881 343.881 C 368.881 344.580,369.056 344.755,369.755 344.755 C 370.299 344.755,370.629 344.557,370.629 344.231 C 370.629 343.828,371.076 343.706,372.552 343.706 C 374.371 343.706,374.476 343.754,374.476 344.580 C 374.476 345.280,374.650 345.455,375.350 345.455 C 375.830 345.455,376.224 345.297,376.224 345.105 C 376.224 344.913,376.870 344.755,377.660 344.755 C 379.018 344.755,379.085 344.803,378.877 345.629 C 378.680 346.417,378.762 346.503,379.714 346.503 C 380.419 346.503,380.769 346.329,380.769 345.979 C 380.769 344.896,383.154 345.311,383.281 346.416 C 383.405 347.497,384.965 348.086,384.965 347.052 C 384.965 346.620,385.374 346.503,386.888 346.503 C 388.706 346.503,388.811 346.551,388.811 347.378 C 388.811 348.077,388.986 348.252,389.685 348.252 C 390.166 348.252,390.559 348.094,390.559 347.902 C 390.559 347.710,391.189 347.552,391.958 347.552 C 393.217 347.552,393.357 347.640,393.357 348.427 C 393.357 349.126,393.531 349.301,394.231 349.301 C 394.775 349.301,395.105 349.103,395.105 348.776 C 395.105 348.397,395.493 348.252,396.503 348.252 C 397.669 348.252,397.902 348.368,397.902 348.951 C 397.902 349.495,398.135 349.650,398.951 349.650 C 399.767 349.650,400.000 349.495,400.000 348.951 C 400.000 348.407,399.767 348.252,398.951 348.252 C 397.990 348.252,397.902 348.151,397.902 347.057 C 397.902 346.400,397.705 345.783,397.465 345.686 C 397.115 345.545,397.115 345.504,397.465 345.482 C 398.521 345.415,397.932 343.706,396.853 343.706 C 395.887 343.706,395.804 343.609,395.804 342.483 C 395.804 341.809,395.647 341.259,395.455 341.259 C 395.262 341.259,395.105 340.770,395.105 340.172 C 395.105 339.360,394.975 339.136,394.591 339.283 C 394.308 339.392,393.847 339.251,393.567 338.971 C 393.286 338.691,392.888 338.462,392.682 338.462 C 392.476 338.462,392.308 338.239,392.308 337.966 C 392.308 337.694,392.111 337.379,391.871 337.267 C 391.521 337.104,391.521 337.022,391.871 336.859 C 392.755 336.446,392.398 334.615,391.434 334.615 C 390.953 334.615,390.559 334.458,390.559 334.266 C 390.559 334.073,390.323 333.916,390.035 333.916 C 389.639 333.916,389.510 333.489,389.510 332.168 C 389.510 330.536,389.452 330.420,388.636 330.420 C 388.156 330.420,387.762 330.264,387.762 330.074 C 387.762 329.537,386.623 328.336,386.301 328.535 C 386.143 328.633,386.014 328.467,386.014 328.167 C 386.014 327.868,386.250 327.622,386.538 327.622 C 386.871 327.622,387.063 327.288,387.063 326.709 C 387.063 325.892,386.951 325.811,386.014 325.949 C 385.275 326.057,384.965 325.958,384.965 325.614 C 384.965 325.036,384.125 324.126,383.591 324.126 C 383.385 324.126,383.217 323.890,383.217 323.601 C 383.217 323.313,383.453 323.077,383.741 323.077 C 384.068 323.077,384.266 322.747,384.266 322.203 C 384.266 321.503,384.091 321.329,383.392 321.329 C 382.848 321.329,382.517 321.131,382.517 320.804 C 382.517 320.516,382.349 320.280,382.143 320.280 C 381.659 320.280,380.769 319.390,380.769 318.906 C 380.769 318.700,380.927 318.531,381.119 318.531 C 381.311 318.531,381.469 318.138,381.469 317.657 C 381.469 316.958,381.294 316.783,380.594 316.783 C 380.051 316.783,379.720 316.585,379.720 316.259 C 379.720 315.970,379.484 315.734,379.196 315.734 C 378.800 315.734,378.671 315.307,378.671 313.986 C 378.671 312.354,378.613 312.238,377.797 312.238 C 377.253 312.238,376.923 312.040,376.923 311.713 C 376.923 311.425,376.766 311.189,376.573 311.189 C 376.381 311.189,376.224 310.402,376.224 309.441 C 376.224 307.809,376.166 307.692,375.350 307.692 C 374.869 307.692,374.476 307.535,374.476 307.343 C 374.476 307.150,374.240 306.993,373.951 306.993 C 373.663 306.993,373.427 306.757,373.427 306.469 C 373.427 306.180,373.191 305.944,372.902 305.944 C 372.614 305.944,372.378 305.708,372.378 305.420 C 372.378 305.131,372.614 304.895,372.902 304.895 C 373.228 304.895,373.427 304.565,373.427 304.021 C 373.427 303.322,373.252 303.147,372.552 303.147 C 372.072 303.147,371.678 302.990,371.678 302.797 C 371.678 302.605,371.442 302.448,371.154 302.448 C 370.828 302.448,370.629 302.117,370.629 301.573 C 370.629 301.030,370.828 300.699,371.154 300.699 C 371.442 300.699,371.678 300.463,371.678 300.175 C 371.678 299.886,371.836 299.650,372.028 299.650 C 372.220 299.650,372.378 299.414,372.378 299.126 C 372.378 298.837,372.614 298.601,372.902 298.601 C 373.298 298.601,373.427 298.174,373.427 296.853 C 373.427 295.221,373.485 295.105,374.301 295.105 C 374.845 295.105,375.175 294.907,375.175 294.580 C 375.175 294.292,375.411 294.056,375.699 294.056 C 375.988 294.056,376.224 293.899,376.224 293.706 C 376.224 293.514,376.617 293.357,377.098 293.357 C 377.642 293.357,377.972 293.159,377.972 292.832 C 377.972 292.544,378.129 292.308,378.322 292.308 C 378.514 292.308,378.671 291.521,378.671 290.559 L 378.671 288.811 380.070 288.811 L 381.469 288.811 381.469 287.413 C 381.469 286.154,381.556 286.014,382.343 286.014 C 383.109 286.014,383.217 285.862,383.217 284.790 C 383.217 283.718,383.325 283.566,384.091 283.566 C 384.889 283.566,384.965 283.434,384.965 282.054 C 384.965 280.571,384.986 280.544,386.014 280.695 C 386.951 280.832,387.063 280.751,387.063 279.935 C 387.063 279.432,387.220 279.021,387.413 279.021 C 387.605 279.021,387.762 278.156,387.762 277.098 C 387.762 275.622,387.884 275.175,388.287 275.175 C 388.613 275.175,388.811 274.845,388.811 274.301 C 388.811 273.820,388.969 273.427,389.161 273.427 C 389.353 273.427,389.510 273.033,389.510 272.552 C 389.510 272.009,389.709 271.678,390.035 271.678 C 390.361 271.678,390.559 271.348,390.559 270.804 C 390.559 270.260,390.758 269.930,391.084 269.930 C 391.410 269.930,391.608 269.600,391.608 269.056 C 391.608 268.357,391.783 268.182,392.483 268.182 C 393.182 268.182,393.357 268.007,393.357 267.308 C 393.357 266.764,393.159 266.434,392.832 266.434 C 392.544 266.434,392.308 266.198,392.308 265.909 C 392.308 265.621,392.544 265.385,392.832 265.385 C 393.159 265.385,393.357 265.054,393.357 264.510 C 393.357 263.811,393.531 263.636,394.231 263.636 C 395.017 263.636,395.105 263.497,395.105 262.238 C 395.105 261.469,395.262 260.839,395.455 260.839 C 395.647 260.839,395.804 260.446,395.804 259.965 C 395.804 259.484,395.647 259.091,395.455 259.091 C 395.262 259.091,395.105 258.855,395.105 258.566 C 395.105 258.240,395.435 258.042,395.979 258.042 C 396.678 258.042,396.853 257.867,396.853 257.168 C 396.853 256.624,396.655 256.294,396.329 256.294 C 396.002 256.294,395.804 255.963,395.804 255.420 C 395.804 254.681,395.967 254.545,396.853 254.545 C 397.739 254.545,397.902 254.409,397.902 253.671 C 397.902 253.127,397.704 252.797,397.378 252.797 C 397.051 252.797,396.853 252.467,396.853 251.923 C 396.853 251.224,397.028 251.049,397.727 251.049 C 398.427 251.049,398.601 250.874,398.601 250.175 C 398.601 249.694,398.444 249.301,398.252 249.301 C 398.059 249.301,397.902 248.671,397.902 247.902 C 397.902 246.643,397.990 246.503,398.776 246.503 C 399.563 246.503,399.650 246.364,399.650 245.105 C 399.650 244.095,399.505 243.706,399.126 243.706 C 398.713 243.706,398.601 243.221,398.601 241.434 C 398.601 239.646,398.713 239.161,399.126 239.161 C 399.783 239.161,399.718 239.960,399.800 230.857 C 399.866 223.549,399.832 223.077,399.236 223.077 C 398.676 223.077,398.601 222.748,398.601 220.280 C 398.601 218.026,398.703 217.483,399.126 217.483 C 399.452 217.483,399.650 217.152,399.650 216.608 C 399.650 215.909,399.476 215.734,398.776 215.734 C 397.960 215.734,397.902 215.618,397.902 213.986 C 397.902 213.024,398.059 212.238,398.252 212.238 C 398.444 212.238,398.601 211.844,398.601 211.364 C 398.601 210.664,398.427 210.490,397.727 210.490 C 396.723 210.490,396.440 208.975,397.378 208.615 C 398.401 208.222,398.004 206.993,396.853 206.993 C 395.921 206.993,395.804 206.876,395.804 205.944 C 395.804 205.245,395.979 204.895,396.329 204.895 C 396.655 204.895,396.853 204.565,396.853 204.021 C 396.853 203.322,396.678 203.147,395.979 203.147 C 395.498 203.147,395.105 202.990,395.105 202.797 C 395.105 202.605,395.262 202.448,395.455 202.448 C 395.647 202.448,395.804 201.973,395.804 201.392 C 395.804 200.441,395.718 200.358,394.930 200.556 C 394.269 200.722,394.056 200.638,394.056 200.213 C 394.056 199.903,394.292 199.650,394.580 199.650 C 394.907 199.650,395.105 199.320,395.105 198.776 C 395.105 198.077,394.930 197.902,394.231 197.902 C 393.531 197.902,393.357 197.727,393.357 197.028 C 393.357 196.484,393.159 196.154,392.832 196.154 C 392.544 196.154,392.308 195.918,392.308 195.629 C 392.308 195.341,392.544 195.105,392.832 195.105 C 393.159 195.105,393.357 194.775,393.357 194.231 C 393.357 193.531,393.182 193.357,392.483 193.357 C 391.783 193.357,391.608 193.182,391.608 192.483 C 391.608 191.939,391.410 191.608,391.084 191.608 C 390.758 191.608,390.559 191.278,390.559 190.734 C 390.559 190.190,390.361 189.860,390.035 189.860 C 389.712 189.860,389.510 189.532,389.510 189.007 C 389.510 188.537,389.353 188.056,389.161 187.937 C 388.969 187.818,388.811 187.337,388.811 186.867 C 388.811 186.342,388.610 186.014,388.287 186.014 C 387.960 186.014,387.762 185.684,387.762 185.140 C 387.762 184.659,387.605 184.266,387.413 184.266 C 387.220 184.266,387.063 183.479,387.063 182.517 C 387.063 180.808,387.040 180.769,386.014 180.769 C 385.023 180.769,384.965 180.692,384.965 179.371 C 384.965 178.112,384.878 177.972,384.091 177.972 C 383.304 177.972,383.217 177.832,383.217 176.573 C 383.217 175.315,383.129 175.175,382.343 175.175 C 381.577 175.175,381.469 175.023,381.469 173.951 C 381.469 172.756,381.435 172.727,380.070 172.727 L 378.671 172.727 378.671 170.954 C 378.671 168.835,378.142 168.182,376.424 168.182 C 375.325 168.182,375.175 168.077,375.175 167.308 C 375.175 166.827,375.017 166.434,374.825 166.434 C 374.633 166.434,374.476 166.198,374.476 165.909 C 374.476 165.621,374.240 165.385,373.951 165.385 C 373.572 165.385,373.427 164.996,373.427 163.986 C 373.427 163.217,373.258 162.587,373.052 162.587 C 372.568 162.587,371.678 161.698,371.678 161.214 C 371.678 161.008,371.442 160.839,371.154 160.839 C 370.865 160.839,370.629 160.671,370.629 160.465 C 370.629 159.980,369.740 159.091,369.256 159.091 C 369.050 159.091,368.881 158.922,368.881 158.716 C 368.881 158.232,367.992 157.343,367.507 157.343 C 367.301 157.343,367.133 157.107,367.133 156.818 C 367.133 156.450,366.761 156.294,365.884 156.294 C 364.662 156.294,363.636 155.667,363.636 154.920 C 363.636 154.714,363.164 154.545,362.587 154.545 C 361.618 154.545,361.538 154.451,361.538 153.297 C 361.538 151.623,360.875 151.049,358.941 151.049 L 357.343 151.049 357.343 149.650 L 357.343 148.252 355.944 148.252 C 354.934 148.252,354.545 148.106,354.545 147.727 C 354.545 147.439,354.427 147.221,354.283 147.244 C 352.697 147.495,351.748 147.152,351.748 146.329 C 351.748 145.848,351.591 145.455,351.399 145.455 C 351.206 145.455,351.049 145.061,351.049 144.580 C 351.049 143.763,350.934 143.706,349.276 143.706 C 347.279 143.706,346.503 143.176,346.503 141.810 C 346.503 140.867,345.131 140.656,344.832 141.553 C 344.634 142.146,343.706 142.048,343.706 141.434 C 343.706 141.145,343.470 140.909,343.182 140.909 C 342.893 140.909,342.657 140.752,342.657 140.559 C 342.657 140.367,342.264 140.210,341.783 140.210 C 341.239 140.210,340.909 140.012,340.909 139.685 C 340.909 139.397,340.752 139.161,340.559 139.161 C 340.367 139.161,340.210 138.767,340.210 138.287 C 340.210 137.598,340.032 137.413,339.373 137.413 C 338.913 137.413,338.446 137.177,338.335 136.888 C 338.224 136.600,337.814 136.364,337.424 136.364 C 337.025 136.364,336.713 136.594,336.713 136.888 C 336.713 137.559,335.801 137.574,335.545 136.907 C 335.405 136.541,335.010 136.457,334.109 136.603 C 333.112 136.765,332.867 136.693,332.867 136.235 C 332.867 135.921,332.631 135.664,332.343 135.664 C 332.054 135.664,331.818 135.428,331.818 135.140 C 331.818 134.814,331.488 134.615,330.944 134.615 C 330.245 134.615,330.070 134.441,330.070 133.741 C 330.070 133.042,329.895 132.867,329.196 132.867 C 328.652 132.867,328.322 133.065,328.322 133.392 C 328.322 133.680,328.164 133.916,327.972 133.916 C 327.780 133.916,327.622 133.680,327.622 133.392 C 327.622 133.042,327.273 132.867,326.573 132.867 C 325.688 132.867,325.524 132.731,325.524 131.993 C 325.524 131.294,325.350 131.119,324.650 131.119 C 324.106 131.119,323.776 131.317,323.776 131.643 C 323.776 131.932,323.619 132.168,323.427 132.168 C 323.234 132.168,323.077 131.932,323.077 131.643 C 323.077 131.265,322.688 131.119,321.678 131.119 C 320.766 131.119,320.280 130.961,320.280 130.666 C 320.280 130.391,319.764 130.179,318.969 130.126 C 318.247 130.078,317.605 129.889,317.541 129.705 C 317.477 129.521,316.887 129.371,316.230 129.371 C 315.188 129.371,315.035 129.258,315.035 128.497 C 315.035 127.584,313.594 127.192,313.112 127.972 C 312.993 128.164,312.512 128.322,312.042 128.322 C 311.573 128.322,311.189 128.164,311.189 127.972 C 311.189 127.780,310.402 127.622,309.441 127.622 C 307.809 127.622,307.692 127.564,307.692 126.748 C 307.692 126.049,307.517 125.874,306.818 125.874 C 306.337 125.874,305.944 126.031,305.944 126.224 C 305.944 126.416,305.551 126.573,305.070 126.573 C 304.371 126.573,304.196 126.399,304.196 125.699 C 304.196 124.954,304.035 124.825,303.109 124.825 C 302.287 124.825,302.072 124.953,302.224 125.350 C 302.382 125.762,302.128 125.874,301.038 125.874 C 299.757 125.874,299.650 125.800,299.650 124.913 C 299.650 124.027,299.540 123.950,298.252 123.933 C 297.326 123.920,296.853 124.068,296.853 124.370 C 296.853 124.683,296.308 124.825,295.105 124.825 C 293.473 124.825,293.357 124.767,293.357 123.951 C 293.357 123.164,293.217 123.077,291.958 123.077 C 290.948 123.077,290.559 123.223,290.559 123.601 C 290.559 124.034,289.918 124.126,286.888 124.126 L 283.217 124.126 283.217 123.077 L 283.217 122.028 280.907 122.028 C 278.997 122.028,278.631 122.119,278.798 122.552 C 278.971 123.004,278.293 123.077,273.940 123.077 C 269.676 123.077,268.881 122.994,268.881 122.552 C 268.881 122.140,268.395 122.028,266.608 122.028 L 264.336 122.028 264.336 123.077 M213.986 214.510 C 213.986 214.889,214.375 215.035,215.385 215.035 C 216.154 215.035,216.783 215.192,216.783 215.385 C 216.783 215.577,217.177 215.734,217.657 215.734 C 218.201 215.734,218.531 215.932,218.531 216.259 C 218.531 216.585,218.862 216.783,219.406 216.783 C 219.886 216.783,220.280 216.941,220.280 217.133 C 220.280 217.325,220.516 217.483,220.804 217.483 C 221.154 217.483,221.329 217.832,221.329 218.531 C 221.329 219.497,221.426 219.580,222.552 219.580 C 223.226 219.580,223.776 219.738,223.776 219.930 C 223.776 220.122,224.012 220.280,224.301 220.280 C 224.589 220.280,224.825 220.516,224.825 220.804 C 224.825 221.093,225.028 221.329,225.275 221.329 C 225.563 221.329,225.710 221.767,225.684 222.552 C 225.647 223.672,225.727 223.776,226.633 223.776 C 227.279 223.776,227.622 223.958,227.622 224.301 C 227.622 224.589,227.780 224.825,227.972 224.825 C 228.164 224.825,228.322 225.219,228.322 225.699 C 228.322 226.243,228.520 226.573,228.846 226.573 C 229.172 226.573,229.371 226.904,229.371 227.448 C 229.371 227.928,229.528 228.322,229.720 228.322 C 229.913 228.322,230.070 228.951,230.070 229.720 C 230.070 230.730,230.216 231.119,230.594 231.119 C 231.036 231.119,231.119 231.915,231.119 236.189 C 231.119 240.058,231.015 241.238,230.682 241.171 C 230.408 241.117,230.204 241.575,230.136 242.395 C 230.077 243.116,229.880 243.706,229.699 243.706 C 229.518 243.706,229.371 244.100,229.371 244.580 C 229.371 245.124,229.172 245.455,228.846 245.455 C 228.520 245.455,228.322 245.785,228.322 246.329 C 228.322 246.809,228.164 247.203,227.972 247.203 C 227.780 247.203,227.622 247.439,227.622 247.727 C 227.622 248.079,227.270 248.252,226.553 248.252 C 225.924 248.252,225.573 248.397,225.701 248.604 C 225.821 248.798,225.672 249.050,225.372 249.166 C 225.011 249.304,224.825 249.820,224.825 250.681 C 224.825 251.985,224.824 251.986,223.427 251.897 C 222.412 251.832,222.028 251.943,222.028 252.302 C 222.028 252.575,221.871 252.797,221.678 252.797 C 221.486 252.797,221.329 253.191,221.329 253.671 C 221.329 254.215,221.131 254.545,220.804 254.545 C 220.516 254.545,220.280 254.781,220.280 255.070 C 220.280 255.396,219.949 255.594,219.406 255.594 C 218.925 255.594,218.531 255.752,218.531 255.944 C 218.531 256.136,218.138 256.294,217.657 256.294 C 217.113 256.294,216.783 256.492,216.783 256.818 C 216.783 257.195,216.398 257.343,215.414 257.343 C 214.661 257.343,213.990 257.506,213.923 257.706 C 213.756 258.208,204.429 258.216,204.261 257.714 C 204.193 257.510,203.521 257.343,202.768 257.343 C 201.784 257.343,201.399 257.195,201.399 256.818 C 201.399 256.492,201.068 256.294,200.524 256.294 C 200.044 256.294,199.650 256.136,199.650 255.944 C 199.650 255.752,199.257 255.594,198.776 255.594 C 198.232 255.594,197.902 255.396,197.902 255.070 C 197.902 254.781,197.666 254.545,197.378 254.545 C 197.051 254.545,196.853 254.215,196.853 253.671 C 196.853 253.150,196.653 252.797,196.358 252.797 C 196.085 252.797,195.797 252.601,195.717 252.360 C 195.637 252.120,195.112 251.918,194.551 251.912 C 193.629 251.903,193.521 251.777,193.423 250.601 C 193.352 249.753,193.139 249.301,192.811 249.301 C 192.534 249.301,192.308 249.065,192.308 248.776 C 192.308 248.450,191.977 248.252,191.434 248.252 C 190.890 248.252,190.559 248.054,190.559 247.727 C 190.559 247.439,190.391 247.203,190.185 247.203 C 189.438 247.203,188.811 246.177,188.811 244.955 C 188.811 244.078,188.655 243.706,188.287 243.706 C 187.907 243.706,187.762 243.316,187.762 242.287 C 187.762 241.430,187.624 240.953,187.413 241.084 C 187.186 241.224,187.063 239.514,187.063 236.209 C 187.063 233.049,187.195 231.119,187.413 231.119 C 187.605 231.119,187.762 230.490,187.762 229.720 C 187.762 228.710,187.908 228.322,188.287 228.322 C 188.613 228.322,188.811 227.991,188.811 227.448 C 188.811 226.967,188.969 226.573,189.161 226.573 C 189.353 226.573,189.510 226.180,189.510 225.699 C 189.510 225.155,189.709 224.825,190.035 224.825 C 190.323 224.825,190.559 224.589,190.559 224.301 C 190.559 223.974,190.890 223.776,191.434 223.776 C 192.199 223.776,192.308 223.625,192.308 222.552 C 192.308 221.698,192.466 221.329,192.832 221.329 C 193.121 221.329,193.357 221.160,193.357 220.954 C 193.357 220.207,194.383 219.580,195.604 219.580 C 196.759 219.580,196.853 219.501,196.853 218.531 C 196.853 217.832,197.028 217.483,197.378 217.483 C 197.666 217.483,197.902 217.325,197.902 217.133 C 197.902 216.941,198.295 216.783,198.776 216.783 C 199.320 216.783,199.650 216.585,199.650 216.259 C 199.650 215.932,199.981 215.734,200.524 215.734 C 201.005 215.734,201.399 215.577,201.399 215.385 C 201.399 215.192,202.028 215.035,202.797 215.035 C 203.807 215.035,204.196 214.889,204.196 214.510 C 204.196 214.069,204.973 213.986,209.091 213.986 C 213.209 213.986,213.986 214.069,213.986 214.510 M278.934 214.423 C 278.879 214.696,279.337 214.901,280.157 214.969 C 280.878 215.028,281.469 215.225,281.469 215.406 C 281.469 215.586,281.862 215.734,282.343 215.734 C 282.887 215.734,283.217 215.932,283.217 216.259 C 283.217 216.566,283.542 216.788,284.003 216.794 C 285.157 216.811,286.014 217.605,286.014 218.657 C 286.014 219.245,286.205 219.580,286.538 219.580 C 286.827 219.580,287.063 219.728,287.063 219.909 C 287.063 220.090,287.653 220.286,288.374 220.346 C 289.194 220.414,289.653 220.618,289.598 220.892 C 289.550 221.132,289.747 221.329,290.035 221.329 C 290.401 221.329,290.559 221.698,290.559 222.552 C 290.559 223.625,290.668 223.776,291.434 223.776 C 292.220 223.776,292.308 223.916,292.308 225.175 C 292.308 226.434,292.395 226.573,293.182 226.573 C 293.881 226.573,294.056 226.748,294.056 227.448 C 294.056 227.991,294.254 228.322,294.580 228.322 C 294.959 228.322,295.105 228.710,295.105 229.720 C 295.105 230.490,295.262 231.119,295.455 231.119 C 295.672 231.119,295.804 233.049,295.804 236.209 C 295.804 239.514,295.682 241.224,295.455 241.084 C 295.243 240.953,295.105 241.430,295.105 242.287 C 295.105 243.316,294.960 243.706,294.580 243.706 C 294.254 243.706,294.056 244.037,294.056 244.580 C 294.056 245.061,293.899 245.455,293.706 245.455 C 293.514 245.455,293.357 245.769,293.357 246.154 C 293.357 246.538,293.042 247.168,292.657 247.552 C 292.273 247.937,291.643 248.252,291.259 248.252 C 290.676 248.252,290.559 248.485,290.559 249.650 C 290.559 250.420,290.391 251.049,290.185 251.049 C 289.701 251.049,288.811 251.938,288.811 252.423 C 288.811 252.629,288.182 252.797,287.413 252.797 C 286.247 252.797,286.014 252.914,286.014 253.497 C 286.014 253.881,285.699 254.510,285.315 254.895 C 284.930 255.280,284.301 255.594,283.916 255.594 C 283.531 255.594,283.217 255.752,283.217 255.944 C 283.217 256.136,282.823 256.294,282.343 256.294 C 281.799 256.294,281.469 256.492,281.469 256.818 C 281.469 257.197,281.080 257.343,280.070 257.343 C 279.301 257.343,278.671 257.500,278.671 257.692 C 278.671 257.909,276.807 258.042,273.776 258.042 C 270.746 258.042,268.881 257.909,268.881 257.692 C 268.881 257.500,268.252 257.343,267.483 257.343 C 266.472 257.343,266.084 257.197,266.084 256.818 C 266.084 256.492,265.754 256.294,265.210 256.294 C 264.729 256.294,264.336 256.136,264.336 255.944 C 264.336 255.752,263.942 255.594,263.462 255.594 C 262.918 255.594,262.587 255.396,262.587 255.070 C 262.587 254.781,262.351 254.545,262.063 254.545 C 261.737 254.545,261.538 254.215,261.538 253.671 C 261.538 252.972,261.364 252.797,260.664 252.797 C 260.120 252.797,259.790 252.995,259.790 253.322 C 259.790 253.610,259.633 253.846,259.441 253.846 C 259.248 253.846,259.091 253.367,259.091 252.782 C 259.091 252.133,258.920 251.740,258.654 251.774 C 257.502 251.924,257.343 251.708,257.343 250.000 C 257.343 248.291,257.319 248.252,256.294 248.252 C 255.303 248.252,255.245 248.174,255.245 246.853 C 255.245 245.594,255.157 245.455,254.371 245.455 C 253.671 245.455,253.497 245.280,253.497 244.580 C 253.497 244.100,253.339 243.706,253.147 243.706 C 252.955 243.706,252.797 243.060,252.797 242.270 C 252.797 241.137,252.686 240.877,252.273 241.036 C 251.821 241.209,251.748 240.531,251.748 236.178 C 251.748 231.914,251.831 231.119,252.273 231.119 C 252.652 231.119,252.797 230.730,252.797 229.720 C 252.797 228.951,252.955 228.322,253.147 228.322 C 253.339 228.322,253.497 227.928,253.497 227.448 C 253.497 226.904,253.695 226.573,254.021 226.573 C 254.347 226.573,254.545 226.243,254.545 225.699 C 254.545 225.219,254.703 224.825,254.895 224.825 C 255.087 224.825,255.245 224.589,255.245 224.301 C 255.245 223.951,255.594 223.776,256.294 223.776 C 257.259 223.776,257.343 223.679,257.343 222.552 C 257.343 221.879,257.500 221.329,257.692 221.329 C 257.885 221.329,258.042 221.093,258.042 220.804 C 258.042 220.516,258.265 220.280,258.537 220.280 C 258.810 220.280,259.097 220.087,259.176 219.851 C 259.257 219.607,259.795 219.459,260.428 219.507 C 261.449 219.585,261.538 219.506,261.538 218.537 C 261.538 217.833,261.713 217.483,262.063 217.483 C 262.351 217.483,262.587 217.325,262.587 217.133 C 262.587 216.941,262.981 216.783,263.462 216.783 C 264.005 216.783,264.336 216.585,264.336 216.259 C 264.336 215.932,264.666 215.734,265.210 215.734 C 265.691 215.734,266.084 215.577,266.084 215.385 C 266.084 215.192,266.713 215.035,267.483 215.035 C 268.493 215.035,268.881 214.889,268.881 214.510 C 268.881 214.068,269.678 213.986,273.951 213.986 C 277.821 213.986,279.000 214.090,278.934 214.423 M343.706 214.510 C 343.706 214.889,344.095 215.035,345.105 215.035 C 345.874 215.035,346.503 215.192,346.503 215.385 C 346.503 215.577,346.897 215.734,347.378 215.734 C 347.922 215.734,348.252 215.932,348.252 216.259 C 348.252 216.585,348.582 216.783,349.126 216.783 C 349.607 216.783,350.000 216.941,350.000 217.133 C 350.000 217.325,350.236 217.483,350.524 217.483 C 350.874 217.483,351.049 217.832,351.049 218.531 C 351.049 219.497,351.146 219.580,352.273 219.580 C 352.946 219.580,353.497 219.738,353.497 219.930 C 353.497 220.122,353.733 220.280,354.021 220.280 C 354.389 220.280,354.545 220.652,354.545 221.528 C 354.545 223.002,355.199 223.776,356.444 223.776 C 357.010 223.776,357.343 223.970,357.343 224.301 C 357.343 224.589,357.500 224.825,357.692 224.825 C 357.885 224.825,358.042 225.219,358.042 225.699 C 358.042 226.243,358.240 226.573,358.566 226.573 C 358.893 226.573,359.091 226.904,359.091 227.448 C 359.091 227.928,359.248 228.322,359.441 228.322 C 359.633 228.322,359.790 228.951,359.790 229.720 C 359.790 230.730,359.936 231.119,360.315 231.119 C 360.757 231.119,360.839 231.915,360.839 236.189 C 360.839 239.813,360.725 241.234,360.439 241.171 C 360.218 241.123,359.971 241.633,359.888 242.308 C 359.805 242.981,359.591 243.584,359.414 243.648 C 359.236 243.712,359.091 244.145,359.091 244.610 C 359.091 245.128,358.888 245.455,358.566 245.455 C 358.240 245.455,358.042 245.785,358.042 246.329 C 358.042 246.809,357.885 247.203,357.692 247.203 C 357.500 247.203,357.343 247.439,357.343 247.727 C 357.343 248.077,356.993 248.252,356.294 248.252 C 355.594 248.252,355.245 248.427,355.245 248.776 C 355.245 249.065,355.087 249.301,354.895 249.301 C 354.703 249.301,354.545 249.923,354.545 250.685 L 354.545 252.069 353.147 251.923 C 352.088 251.813,351.748 251.901,351.748 252.287 C 351.748 252.568,351.591 252.797,351.399 252.797 C 351.206 252.797,351.049 253.191,351.049 253.671 C 351.049 254.215,350.851 254.545,350.524 254.545 C 350.236 254.545,350.000 254.781,350.000 255.070 C 350.000 255.396,349.670 255.594,349.126 255.594 C 348.645 255.594,348.252 255.752,348.252 255.944 C 348.252 256.136,347.858 256.294,347.378 256.294 C 346.834 256.294,346.503 256.492,346.503 256.818 C 346.503 257.195,346.118 257.343,345.134 257.343 C 344.381 257.343,343.711 257.504,343.645 257.702 C 343.477 258.204,334.150 258.220,333.983 257.718 C 333.914 257.512,333.242 257.343,332.488 257.343 C 331.504 257.343,331.119 257.195,331.119 256.818 C 331.119 256.492,330.789 256.294,330.245 256.294 C 329.764 256.294,329.371 256.136,329.371 255.944 C 329.371 255.752,328.977 255.594,328.497 255.594 C 327.953 255.594,327.622 255.396,327.622 255.070 C 327.622 254.781,327.386 254.545,327.098 254.545 C 326.772 254.545,326.573 254.215,326.573 253.671 C 326.573 253.150,326.373 252.797,326.078 252.797 C 325.806 252.797,325.517 252.601,325.437 252.360 C 325.357 252.120,324.833 251.918,324.272 251.912 C 323.349 251.903,323.241 251.777,323.143 250.601 C 323.072 249.753,322.860 249.301,322.531 249.301 C 322.254 249.301,322.028 249.065,322.028 248.776 C 322.028 248.450,321.698 248.252,321.154 248.252 C 320.367 248.252,320.280 248.112,320.280 246.853 C 320.280 245.594,320.192 245.455,319.406 245.455 C 318.706 245.455,318.531 245.280,318.531 244.580 C 318.531 244.037,318.333 243.706,318.007 243.706 C 317.627 243.706,317.483 243.316,317.483 242.287 C 317.483 241.430,317.344 240.953,317.133 241.084 C 316.906 241.224,316.783 239.514,316.783 236.209 C 316.783 233.049,316.916 231.119,317.133 231.119 C 317.325 231.119,317.483 230.490,317.483 229.720 C 317.483 228.710,317.628 228.322,318.007 228.322 C 318.333 228.322,318.531 227.991,318.531 227.448 C 318.531 226.967,318.689 226.573,318.881 226.573 C 319.073 226.573,319.231 226.180,319.231 225.699 C 319.231 225.155,319.429 224.825,319.755 224.825 C 320.044 224.825,320.280 224.589,320.280 224.301 C 320.280 223.974,320.610 223.776,321.154 223.776 C 321.920 223.776,322.028 223.625,322.028 222.552 C 322.028 221.698,322.186 221.329,322.552 221.329 C 322.841 221.329,323.077 221.160,323.077 220.954 C 323.077 220.207,324.103 219.580,325.325 219.580 C 326.479 219.580,326.573 219.501,326.573 218.531 C 326.573 217.832,326.748 217.483,327.098 217.483 C 327.386 217.483,327.622 217.325,327.622 217.133 C 327.622 216.941,328.016 216.783,328.497 216.783 C 329.040 216.783,329.371 216.585,329.371 216.259 C 329.371 215.932,329.701 215.734,330.245 215.734 C 330.726 215.734,331.119 215.577,331.119 215.385 C 331.119 215.192,331.906 215.035,332.867 215.035 C 334.188 215.035,334.615 214.907,334.615 214.510 C 334.615 214.071,335.354 213.986,339.161 213.986 C 342.968 213.986,343.706 214.071,343.706 214.510 " stroke="none" fill="#2494f4" fill-rule="evenodd"></path><path id="path1" d="M111.443 2.350 C 112.064 2.427,113.165 2.429,113.891 2.353 C 114.616 2.277,114.108 2.214,112.762 2.213 C 111.416 2.211,110.823 2.273,111.443 2.350 M155.332 2.348 C 155.861 2.428,156.726 2.428,157.255 2.348 C 157.784 2.268,157.351 2.203,156.294 2.203 C 155.236 2.203,154.803 2.268,155.332 2.348 M2.206 97.727 C 2.208 98.881,2.273 99.311,2.351 98.683 C 2.429 98.054,2.428 97.110,2.348 96.585 C 2.268 96.059,2.204 96.573,2.206 97.727 M259.003 124.034 C 260.013 124.105,261.665 124.105,262.675 124.034 C 263.684 123.963,262.858 123.906,260.839 123.906 C 258.820 123.906,257.994 123.963,259.003 124.034 M285.065 124.035 C 286.178 124.105,287.909 124.104,288.911 124.034 C 289.914 123.963,289.003 123.906,286.888 123.907 C 284.773 123.908,283.952 123.965,285.065 124.035 M2.206 131.993 C 2.208 133.147,2.273 133.577,2.351 132.948 C 2.429 132.320,2.428 131.376,2.348 130.850 C 2.268 130.325,2.204 130.839,2.206 131.993 M65.997 200.596 C 66.429 200.680,67.137 200.680,67.570 200.596 C 68.003 200.513,67.649 200.445,66.783 200.445 C 65.918 200.445,65.564 200.513,65.997 200.596 M113.905 200.603 C 114.533 200.681,115.477 200.679,116.003 200.599 C 116.528 200.520,116.014 200.456,114.860 200.458 C 113.706 200.460,113.276 200.525,113.905 200.603 M126.492 200.603 C 127.121 200.681,128.065 200.679,128.590 200.599 C 129.116 200.520,128.601 200.456,127.448 200.458 C 126.294 200.460,125.864 200.525,126.492 200.603 " stroke="none" fill="#2894f4" fill-rule="evenodd"></path><path id="path2" d="M111.443 2.350 C 112.064 2.427,113.165 2.429,113.891 2.353 C 114.616 2.277,114.108 2.214,112.762 2.213 C 111.416 2.211,110.823 2.273,111.443 2.350 M155.332 2.348 C 155.861 2.428,156.726 2.428,157.255 2.348 C 157.784 2.268,157.351 2.203,156.294 2.203 C 155.236 2.203,154.803 2.268,155.332 2.348 M2.206 97.727 C 2.208 98.881,2.273 99.311,2.351 98.683 C 2.429 98.054,2.428 97.110,2.348 96.585 C 2.268 96.059,2.204 96.573,2.206 97.727 M259.003 124.034 C 260.013 124.105,261.665 124.105,262.675 124.034 C 263.684 123.963,262.858 123.906,260.839 123.906 C 258.820 123.906,257.994 123.963,259.003 124.034 M285.065 124.035 C 286.178 124.105,287.909 124.104,288.911 124.034 C 289.914 123.963,289.003 123.906,286.888 123.907 C 284.773 123.908,283.952 123.965,285.065 124.035 M2.206 131.993 C 2.208 133.147,2.273 133.577,2.351 132.948 C 2.429 132.320,2.428 131.376,2.348 130.850 C 2.268 130.325,2.204 130.839,2.206 131.993 M65.997 200.596 C 66.429 200.680,67.137 200.680,67.570 200.596 C 68.003 200.513,67.649 200.445,66.783 200.445 C 65.918 200.445,65.564 200.513,65.997 200.596 M113.905 200.603 C 114.533 200.681,115.477 200.679,116.003 200.599 C 116.528 200.520,116.014 200.456,114.860 200.458 C 113.706 200.460,113.276 200.525,113.905 200.603 M126.492 200.603 C 127.121 200.681,128.065 200.679,128.590 200.599 C 129.116 200.520,128.601 200.456,127.448 200.458 C 126.294 200.460,125.864 200.525,126.492 200.603 " stroke="none" fill="#2894f4" fill-rule="evenodd"></path><path id="path3" d="M111.443 2.350 C 112.064 2.427,113.165 2.429,113.891 2.353 C 114.616 2.277,114.108 2.214,112.762 2.213 C 111.416 2.211,110.823 2.273,111.443 2.350 M155.332 2.348 C 155.861 2.428,156.726 2.428,157.255 2.348 C 157.784 2.268,157.351 2.203,156.294 2.203 C 155.236 2.203,154.803 2.268,155.332 2.348 M2.206 97.727 C 2.208 98.881,2.273 99.311,2.351 98.683 C 2.429 98.054,2.428 97.110,2.348 96.585 C 2.268 96.059,2.204 96.573,2.206 97.727 M259.003 124.034 C 260.013 124.105,261.665 124.105,262.675 124.034 C 263.684 123.963,262.858 123.906,260.839 123.906 C 258.820 123.906,257.994 123.963,259.003 124.034 M285.065 124.035 C 286.178 124.105,287.909 124.104,288.911 124.034 C 289.914 123.963,289.003 123.906,286.888 123.907 C 284.773 123.908,283.952 123.965,285.065 124.035 M2.206 131.993 C 2.208 133.147,2.273 133.577,2.351 132.948 C 2.429 132.320,2.428 131.376,2.348 130.850 C 2.268 130.325,2.204 130.839,2.206 131.993 M65.997 200.596 C 66.429 200.680,67.137 200.680,67.570 200.596 C 68.003 200.513,67.649 200.445,66.783 200.445 C 65.918 200.445,65.564 200.513,65.997 200.596 M113.905 200.603 C 114.533 200.681,115.477 200.679,116.003 200.599 C 116.528 200.520,116.014 200.456,114.860 200.458 C 113.706 200.460,113.276 200.525,113.905 200.603 M126.492 200.603 C 127.121 200.681,128.065 200.679,128.590 200.599 C 129.116 200.520,128.601 200.456,127.448 200.458 C 126.294 200.460,125.864 200.525,126.492 200.603 " stroke="none" fill="#2894f4" fill-rule="evenodd"></path><path id="path4" d="M111.443 2.350 C 112.064 2.427,113.165 2.429,113.891 2.353 C 114.616 2.277,114.108 2.214,112.762 2.213 C 111.416 2.211,110.823 2.273,111.443 2.350 M155.332 2.348 C 155.861 2.428,156.726 2.428,157.255 2.348 C 157.784 2.268,157.351 2.203,156.294 2.203 C 155.236 2.203,154.803 2.268,155.332 2.348 M2.206 97.727 C 2.208 98.881,2.273 99.311,2.351 98.683 C 2.429 98.054,2.428 97.110,2.348 96.585 C 2.268 96.059,2.204 96.573,2.206 97.727 M259.003 124.034 C 260.013 124.105,261.665 124.105,262.675 124.034 C 263.684 123.963,262.858 123.906,260.839 123.906 C 258.820 123.906,257.994 123.963,259.003 124.034 M285.065 124.035 C 286.178 124.105,287.909 124.104,288.911 124.034 C 289.914 123.963,289.003 123.906,286.888 123.907 C 284.773 123.908,283.952 123.965,285.065 124.035 M2.206 131.993 C 2.208 133.147,2.273 133.577,2.351 132.948 C 2.429 132.320,2.428 131.376,2.348 130.850 C 2.268 130.325,2.204 130.839,2.206 131.993 M65.997 200.596 C 66.429 200.680,67.137 200.680,67.570 200.596 C 68.003 200.513,67.649 200.445,66.783 200.445 C 65.918 200.445,65.564 200.513,65.997 200.596 M113.905 200.603 C 114.533 200.681,115.477 200.679,116.003 200.599 C 116.528 200.520,116.014 200.456,114.860 200.458 C 113.706 200.460,113.276 200.525,113.905 200.603 M126.492 200.603 C 127.121 200.681,128.065 200.679,128.590 200.599 C 129.116 200.520,128.601 200.456,127.448 200.458 C 126.294 200.460,125.864 200.525,126.492 200.603 " stroke="none" fill="#2894f4" fill-rule="evenodd"></path></g></svg>