<svg id="svg" version="1.1" xmlns="http://www.w3.org/2000/svg" xmlns:xlink="http://www.w3.org/1999/xlink" width="400" height="400" viewBox="0, 0, 400,400"><g id="svgg"><path id="path0" d="M154.000 43.700 C 154.000 44.304,144.649 44.881,141.900 44.447 C 141.735 44.421,141.600 44.760,141.600 45.200 C 141.600 45.947,141.333 46.000,137.600 46.000 C 133.867 46.000,133.600 46.053,133.600 46.800 C 133.600 47.534,133.333 47.600,130.382 47.600 C 127.540 47.600,127.179 47.682,127.282 48.300 C 127.381 48.888,127.033 49.019,125.100 49.120 C 123.127 49.223,122.800 49.351,122.800 50.020 C 122.800 50.663,122.520 50.800,121.200 50.800 C 119.867 50.800,119.600 50.933,119.600 51.600 C 119.600 52.311,119.333 52.400,117.200 52.400 C 115.067 52.400,114.800 52.489,114.800 53.200 C 114.800 53.865,114.533 54.000,113.223 54.000 C 111.861 54.000,111.667 54.109,111.800 54.800 C 111.933 55.489,111.739 55.600,110.404 55.600 C 109.205 55.600,108.796 55.781,108.600 56.400 C 108.411 56.995,107.995 57.200,106.973 57.200 C 106.019 57.200,105.600 57.383,105.600 57.800 C 105.600 58.168,105.226 58.400,104.633 58.400 C 103.129 58.400,102.400 58.814,102.400 59.670 C 102.400 60.272,102.214 60.395,101.600 60.200 C 100.939 59.990,100.800 60.128,100.800 60.991 C 100.800 61.974,100.705 62.025,99.200 61.852 C 97.827 61.695,97.600 61.777,97.600 62.434 C 97.600 63.062,97.309 63.200,95.982 63.200 C 94.664 63.200,94.387 63.329,94.482 63.900 C 94.562 64.374,94.297 64.643,93.662 64.733 C 92.960 64.832,92.774 65.059,92.924 65.633 C 93.070 66.191,92.917 66.400,92.363 66.400 C 91.867 66.400,91.600 66.680,91.600 67.200 C 91.600 67.867,91.333 68.000,90.000 68.000 C 88.667 68.000,88.400 68.133,88.400 68.800 C 88.400 69.333,88.133 69.600,87.600 69.600 C 87.067 69.600,86.800 69.867,86.800 70.400 C 86.800 70.933,86.533 71.200,86.000 71.200 C 85.467 71.200,85.200 71.467,85.200 72.000 C 85.200 72.533,84.933 72.800,84.400 72.800 C 83.867 72.800,83.600 73.067,83.600 73.600 C 83.600 74.133,83.333 74.400,82.800 74.400 C 82.356 74.400,82.000 74.667,82.000 75.000 C 82.000 75.330,81.726 75.600,81.390 75.600 C 81.055 75.600,80.610 76.047,80.403 76.592 C 80.170 77.206,79.811 77.502,79.463 77.369 C 79.073 77.219,78.916 77.436,78.950 78.076 C 78.989 78.802,78.802 78.989,78.076 78.950 C 77.436 78.916,77.219 79.073,77.369 79.463 C 77.502 79.811,77.206 80.170,76.592 80.403 C 76.047 80.610,75.600 81.055,75.600 81.390 C 75.600 81.726,75.330 82.000,75.000 82.000 C 74.667 82.000,74.400 82.356,74.400 82.800 C 74.400 83.333,74.133 83.600,73.600 83.600 C 73.067 83.600,72.800 83.867,72.800 84.400 C 72.800 84.933,72.533 85.200,72.000 85.200 C 71.467 85.200,71.200 85.467,71.200 86.000 C 71.200 86.533,70.933 86.800,70.400 86.800 C 69.867 86.800,69.600 87.067,69.600 87.600 C 69.600 88.133,69.333 88.400,68.800 88.400 C 68.133 88.400,68.000 88.667,68.000 90.000 C 68.000 91.333,67.867 91.600,67.200 91.600 C 66.680 91.600,66.400 91.867,66.400 92.363 C 66.400 92.917,66.191 93.070,65.633 92.924 C 65.059 92.774,64.832 92.960,64.733 93.662 C 64.643 94.297,64.374 94.562,63.900 94.482 C 63.329 94.387,63.200 94.664,63.200 95.982 C 63.200 97.309,63.062 97.600,62.434 97.600 C 61.777 97.600,61.695 97.827,61.852 99.200 C 62.025 100.705,61.974 100.800,60.991 100.800 C 60.128 100.800,59.990 100.939,60.200 101.600 C 60.395 102.214,60.272 102.400,59.670 102.400 C 58.814 102.400,58.400 103.129,58.400 104.633 C 58.400 105.226,58.168 105.600,57.800 105.600 C 57.383 105.600,57.200 106.019,57.200 106.973 C 57.200 107.995,56.995 108.411,56.400 108.600 C 55.781 108.796,55.600 109.205,55.600 110.404 C 55.600 111.739,55.489 111.933,54.800 111.800 C 54.109 111.667,54.000 111.861,54.000 113.223 C 54.000 114.533,53.865 114.800,53.200 114.800 C 52.489 114.800,52.400 115.067,52.400 117.200 C 52.400 119.333,52.311 119.600,51.600 119.600 C 50.933 119.600,50.800 119.867,50.800 121.200 C 50.800 122.520,50.663 122.800,50.020 122.800 C 49.351 122.800,49.223 123.127,49.120 125.100 C 49.019 127.033,48.888 127.381,48.300 127.282 C 47.682 127.179,47.600 127.540,47.600 130.382 C 47.600 133.333,47.534 133.600,46.800 133.600 C 46.053 133.600,46.000 133.867,46.000 137.600 C 46.000 141.333,45.947 141.600,45.200 141.600 C 44.760 141.600,44.421 141.735,44.447 141.900 C 44.881 144.649,44.304 154.000,43.700 154.000 C 42.692 154.000,42.772 172.519,43.781 172.729 C 44.305 172.839,44.832 182.461,44.447 184.900 C 44.421 185.065,44.760 185.200,45.200 185.200 C 45.944 185.200,46.000 185.467,46.000 189.000 C 46.000 192.533,46.056 192.800,46.800 192.800 C 47.533 192.800,47.600 193.067,47.600 196.000 C 47.600 198.933,47.667 199.200,48.400 199.200 C 49.111 199.200,49.200 199.467,49.200 201.600 C 49.200 203.733,49.289 204.000,50.000 204.000 C 50.703 204.000,50.800 204.267,50.800 206.200 C 50.800 208.133,50.897 208.400,51.600 208.400 C 52.267 208.400,52.400 208.667,52.400 210.000 C 52.400 211.333,52.533 211.600,53.200 211.600 C 53.867 211.600,54.000 211.867,54.000 213.200 C 54.000 214.533,54.133 214.800,54.800 214.800 C 55.467 214.800,55.600 215.067,55.600 216.400 C 55.600 217.733,55.733 218.000,56.400 218.000 C 57.067 218.000,57.200 218.267,57.200 219.600 C 57.200 220.756,57.367 221.200,57.800 221.200 C 58.168 221.200,58.400 221.574,58.400 222.167 C 58.400 223.548,58.798 224.400,59.443 224.400 C 59.947 224.400,60.200 225.390,60.030 226.700 C 59.993 226.983,60.396 227.200,60.959 227.200 C 61.739 227.200,61.921 227.373,61.800 228.000 C 61.689 228.578,61.861 228.800,62.423 228.800 C 63.063 228.800,63.200 229.082,63.200 230.400 C 63.200 231.733,63.333 232.000,64.000 232.000 C 64.533 232.000,64.800 232.267,64.800 232.800 C 64.800 233.333,65.067 233.600,65.600 233.600 C 66.267 233.600,66.400 233.867,66.400 235.200 C 66.400 236.533,66.533 236.800,67.200 236.800 C 67.733 236.800,68.000 237.067,68.000 237.600 C 68.000 238.133,68.267 238.400,68.800 238.400 C 69.333 238.400,69.600 238.667,69.600 239.200 C 69.600 239.733,69.867 240.000,70.400 240.000 C 70.933 240.000,71.200 240.267,71.200 240.800 C 71.200 241.333,71.467 241.600,72.000 241.600 C 72.648 241.600,72.800 241.867,72.800 243.000 C 72.800 244.133,72.952 244.400,73.600 244.400 C 74.133 244.400,74.400 244.667,74.400 245.200 C 74.400 245.644,74.667 246.000,75.000 246.000 C 75.330 246.000,75.600 246.274,75.600 246.610 C 75.600 246.945,76.047 247.390,76.592 247.597 C 77.252 247.848,77.506 248.180,77.350 248.587 C 77.176 249.039,77.383 249.200,78.134 249.200 C 78.939 249.200,79.122 249.369,79.000 250.000 C 78.889 250.578,79.061 250.800,79.623 250.800 C 80.133 250.800,80.400 251.075,80.400 251.600 C 80.400 252.133,80.667 252.400,81.200 252.400 C 81.733 252.400,82.000 252.667,82.000 253.200 C 82.000 253.733,82.267 254.000,82.800 254.000 C 83.333 254.000,83.600 254.267,83.600 254.800 C 83.600 255.467,83.867 255.600,85.200 255.600 C 86.533 255.600,86.800 255.733,86.800 256.400 C 86.800 256.933,87.067 257.200,87.600 257.200 C 88.044 257.200,88.400 257.467,88.400 257.800 C 88.400 258.133,88.756 258.400,89.200 258.400 C 89.733 258.400,90.000 258.667,90.000 259.200 C 90.000 259.733,90.267 260.000,90.800 260.000 C 91.333 260.000,91.600 260.267,91.600 260.800 C 91.600 261.448,91.867 261.600,93.000 261.600 C 94.272 261.600,94.605 261.899,94.447 262.900 C 94.421 263.065,94.760 263.200,95.200 263.200 C 95.733 263.200,96.000 263.467,96.000 264.000 C 96.000 264.667,96.267 264.800,97.600 264.800 C 98.933 264.800,99.200 264.933,99.200 265.600 C 99.200 266.267,99.467 266.400,100.800 266.400 C 102.133 266.400,102.400 266.533,102.400 267.200 C 102.400 267.733,102.667 268.000,103.200 268.000 C 103.733 268.000,104.000 268.267,104.000 268.800 C 104.000 269.467,104.267 269.600,105.600 269.600 C 106.933 269.600,107.200 269.733,107.200 270.400 C 107.200 271.063,107.467 271.200,108.756 271.200 C 109.992 271.200,110.300 271.344,110.256 271.900 C 110.214 272.429,110.556 272.630,111.659 272.722 C 112.707 272.809,113.175 273.063,113.322 273.622 C 113.493 274.276,113.882 274.400,115.763 274.400 C 117.485 274.400,118.000 274.538,118.000 275.000 C 118.000 275.433,118.444 275.600,119.600 275.600 C 120.933 275.600,121.200 275.733,121.200 276.400 C 121.200 277.103,121.467 277.200,123.400 277.200 C 125.333 277.200,125.600 277.297,125.600 278.000 C 125.600 278.733,125.867 278.800,128.800 278.800 C 131.733 278.800,132.000 278.867,132.000 279.600 C 132.000 280.333,132.267 280.400,135.200 280.400 C 138.133 280.400,138.400 280.467,138.400 281.200 C 138.400 281.954,138.667 282.000,143.000 282.000 C 147.333 282.000,147.600 282.046,147.600 282.800 C 147.600 283.586,147.867 283.600,163.200 283.600 C 178.533 283.600,178.800 283.586,178.800 282.800 C 178.800 282.038,179.067 282.000,184.400 282.000 C 189.733 282.000,190.000 281.962,190.000 281.200 C 190.000 280.471,190.267 280.400,193.000 280.400 C 195.733 280.400,196.000 280.329,196.000 279.600 C 196.000 278.889,196.267 278.800,198.400 278.800 C 200.533 278.800,200.800 278.711,200.800 278.000 C 200.800 277.289,201.067 277.200,203.200 277.200 C 205.333 277.200,205.600 277.111,205.600 276.400 C 205.600 275.697,205.867 275.600,207.800 275.600 C 209.489 275.600,210.000 275.461,210.000 275.000 C 210.000 274.567,210.444 274.400,211.600 274.400 C 212.933 274.400,213.200 274.267,213.200 273.600 C 213.200 272.933,213.467 272.800,214.800 272.800 C 216.133 272.800,216.400 272.667,216.400 272.000 C 216.400 271.289,216.667 271.200,218.800 271.200 C 220.933 271.200,221.200 271.111,221.200 270.400 C 221.200 269.867,221.467 269.600,222.000 269.600 C 222.533 269.600,222.800 269.333,222.800 268.800 C 222.800 268.152,223.067 268.000,224.200 268.000 C 225.333 268.000,225.600 267.848,225.600 267.200 C 225.600 266.533,225.867 266.400,227.200 266.400 C 228.533 266.400,228.800 266.267,228.800 265.600 C 228.800 265.067,229.067 264.800,229.600 264.800 C 230.133 264.800,230.400 264.533,230.400 264.000 C 230.400 263.333,230.667 263.200,232.000 263.200 C 233.333 263.200,233.600 263.067,233.600 262.400 C 233.600 261.867,233.867 261.600,234.400 261.600 C 234.933 261.600,235.200 261.333,235.200 260.800 C 235.200 260.267,235.467 260.000,236.000 260.000 C 236.533 260.000,236.800 259.733,236.800 259.200 C 236.800 258.533,237.067 258.400,238.400 258.400 C 239.556 258.400,240.000 258.233,240.000 257.800 C 240.000 257.470,240.287 257.200,240.637 257.200 C 240.988 257.200,241.369 256.840,241.484 256.400 C 241.599 255.960,241.942 255.600,242.247 255.600 C 242.551 255.600,242.800 255.240,242.800 254.800 C 242.800 254.267,243.067 254.000,243.600 254.000 C 244.133 254.000,244.400 253.733,244.400 253.200 C 244.400 252.667,244.667 252.400,245.200 252.400 C 245.733 252.400,246.000 252.133,246.000 251.600 C 246.000 251.067,246.267 250.800,246.800 250.800 C 247.333 250.800,247.600 250.533,247.600 250.000 C 247.600 249.467,247.867 249.200,248.400 249.200 C 248.933 249.200,249.200 248.933,249.200 248.400 C 249.200 247.867,249.467 247.600,250.000 247.600 C 250.533 247.600,250.800 247.333,250.800 246.800 C 250.800 246.267,251.067 246.000,251.600 246.000 C 252.133 246.000,252.400 245.733,252.400 245.200 C 252.400 244.667,252.667 244.400,253.200 244.400 C 253.733 244.400,254.000 244.133,254.000 243.600 C 254.000 243.067,254.267 242.800,254.800 242.800 C 255.240 242.800,255.600 242.551,255.600 242.247 C 255.600 241.942,255.960 241.599,256.400 241.484 C 256.840 241.369,257.200 240.988,257.200 240.637 C 257.200 240.287,257.470 240.000,257.800 240.000 C 258.233 240.000,258.400 239.556,258.400 238.400 C 258.400 237.067,258.533 236.800,259.200 236.800 C 259.733 236.800,260.000 236.533,260.000 236.000 C 260.000 235.467,260.267 235.200,260.800 235.200 C 261.333 235.200,261.600 234.933,261.600 234.400 C 261.600 233.867,261.867 233.600,262.400 233.600 C 263.067 233.600,263.200 233.333,263.200 232.000 C 263.200 230.667,263.333 230.400,264.000 230.400 C 264.533 230.400,264.800 230.133,264.800 229.600 C 264.800 229.067,265.067 228.800,265.600 228.800 C 266.267 228.800,266.400 228.533,266.400 227.200 C 266.400 225.867,266.533 225.600,267.200 225.600 C 267.848 225.600,268.000 225.333,268.000 224.200 C 268.000 223.067,268.152 222.800,268.800 222.800 C 269.333 222.800,269.600 222.533,269.600 222.000 C 269.600 221.467,269.867 221.200,270.400 221.200 C 271.111 221.200,271.200 220.933,271.200 218.800 C 271.200 216.667,271.289 216.400,272.000 216.400 C 272.667 216.400,272.800 216.133,272.800 214.800 C 272.800 213.467,272.933 213.200,273.600 213.200 C 274.267 213.200,274.400 212.933,274.400 211.600 C 274.400 210.444,274.567 210.000,275.000 210.000 C 275.461 210.000,275.600 209.489,275.600 207.800 C 275.600 205.867,275.697 205.600,276.400 205.600 C 277.111 205.600,277.200 205.333,277.200 203.200 C 277.200 201.067,277.289 200.800,278.000 200.800 C 278.711 200.800,278.800 200.533,278.800 198.400 C 278.800 196.267,278.889 196.000,279.600 196.000 C 280.329 196.000,280.400 195.733,280.400 193.000 C 280.400 190.267,280.471 190.000,281.200 190.000 C 281.956 190.000,282.000 189.733,282.000 185.200 C 282.000 180.667,282.044 180.400,282.800 180.400 C 283.587 180.400,283.600 180.133,283.600 164.000 C 283.600 147.867,283.587 147.600,282.800 147.600 C 282.046 147.600,282.000 147.333,282.000 143.000 C 282.000 138.667,281.954 138.400,281.200 138.400 C 280.467 138.400,280.400 138.133,280.400 135.200 C 280.400 132.267,280.333 132.000,279.600 132.000 C 278.867 132.000,278.800 131.733,278.800 128.800 C 278.800 125.867,278.733 125.600,278.000 125.600 C 277.297 125.600,277.200 125.333,277.200 123.400 C 277.200 121.467,277.103 121.200,276.400 121.200 C 275.733 121.200,275.600 120.933,275.600 119.600 C 275.600 118.444,275.433 118.000,275.000 118.000 C 274.538 118.000,274.400 117.485,274.400 115.763 C 274.400 113.882,274.276 113.493,273.622 113.322 C 273.063 113.175,272.809 112.707,272.722 111.659 C 272.630 110.556,272.429 110.214,271.900 110.256 C 271.344 110.300,271.200 109.992,271.200 108.756 C 271.200 107.467,271.063 107.200,270.400 107.200 C 269.733 107.200,269.600 106.933,269.600 105.600 C 269.600 104.267,269.467 104.000,268.800 104.000 C 268.267 104.000,268.000 103.733,268.000 103.200 C 268.000 102.667,267.733 102.400,267.200 102.400 C 266.533 102.400,266.400 102.133,266.400 100.800 C 266.400 99.467,266.267 99.200,265.600 99.200 C 264.933 99.200,264.800 98.933,264.800 97.600 C 264.800 96.267,264.667 96.000,264.000 96.000 C 263.467 96.000,263.200 95.733,263.200 95.200 C 263.200 94.760,263.065 94.421,262.900 94.447 C 261.899 94.605,261.600 94.272,261.600 93.000 C 261.600 91.867,261.448 91.600,260.800 91.600 C 260.267 91.600,260.000 91.333,260.000 90.800 C 260.000 90.267,259.733 90.000,259.200 90.000 C 258.667 90.000,258.400 89.733,258.400 89.200 C 258.400 88.756,258.133 88.400,257.800 88.400 C 257.467 88.400,257.200 88.044,257.200 87.600 C 257.200 87.067,256.933 86.800,256.400 86.800 C 255.733 86.800,255.600 86.533,255.600 85.200 C 255.600 83.867,255.467 83.600,254.800 83.600 C 254.267 83.600,254.000 83.333,254.000 82.800 C 254.000 82.267,253.733 82.000,253.200 82.000 C 252.667 82.000,252.400 81.733,252.400 81.200 C 252.400 80.667,252.133 80.400,251.600 80.400 C 251.075 80.400,250.800 80.133,250.800 79.623 C 250.800 79.061,250.578 78.889,250.000 79.000 C 249.369 79.122,249.200 78.939,249.200 78.134 C 249.200 77.383,249.039 77.176,248.587 77.350 C 248.180 77.506,247.848 77.252,247.597 76.592 C 247.390 76.047,246.945 75.600,246.610 75.600 C 246.274 75.600,246.000 75.330,246.000 75.000 C 246.000 74.667,245.644 74.400,245.200 74.400 C 244.667 74.400,244.400 74.133,244.400 73.600 C 244.400 72.952,244.133 72.800,243.000 72.800 C 241.867 72.800,241.600 72.648,241.600 72.000 C 241.600 71.467,241.333 71.200,240.800 71.200 C 240.267 71.200,240.000 70.933,240.000 70.400 C 240.000 69.867,239.733 69.600,239.200 69.600 C 238.667 69.600,238.400 69.333,238.400 68.800 C 238.400 68.267,238.133 68.000,237.600 68.000 C 237.067 68.000,236.800 67.733,236.800 67.200 C 236.800 66.533,236.533 66.400,235.200 66.400 C 233.867 66.400,233.600 66.267,233.600 65.600 C 233.600 65.067,233.333 64.800,232.800 64.800 C 232.267 64.800,232.000 64.533,232.000 64.000 C 232.000 63.333,231.733 63.200,230.400 63.200 C 229.082 63.200,228.800 63.063,228.800 62.423 C 228.800 61.861,228.578 61.689,228.000 61.800 C 227.373 61.921,227.200 61.739,227.200 60.959 C 227.200 60.396,226.983 59.993,226.700 60.030 C 225.390 60.200,224.400 59.947,224.400 59.443 C 224.400 58.798,223.548 58.400,222.167 58.400 C 221.574 58.400,221.200 58.168,221.200 57.800 C 221.200 57.467,220.844 57.200,220.400 57.200 C 219.867 57.200,219.600 56.933,219.600 56.400 C 219.600 55.689,219.333 55.600,217.200 55.600 C 215.067 55.600,214.800 55.511,214.800 54.800 C 214.800 54.133,214.533 54.000,213.200 54.000 C 211.867 54.000,211.600 53.867,211.600 53.200 C 211.600 52.533,211.333 52.400,210.000 52.400 C 208.667 52.400,208.400 52.267,208.400 51.600 C 208.400 50.897,208.133 50.800,206.200 50.800 C 204.267 50.800,204.000 50.703,204.000 50.000 C 204.000 49.289,203.733 49.200,201.600 49.200 C 199.467 49.200,199.200 49.111,199.200 48.400 C 199.200 47.667,198.933 47.600,196.000 47.600 C 193.067 47.600,192.800 47.533,192.800 46.800 C 192.800 46.056,192.533 46.000,189.000 46.000 C 185.467 46.000,185.200 45.944,185.200 45.200 C 185.200 44.760,185.065 44.421,184.900 44.447 C 182.461 44.832,172.839 44.305,172.729 43.781 C 172.519 42.772,154.000 42.692,154.000 43.700 M172.800 65.600 C 172.800 66.360,173.067 66.400,178.200 66.400 C 183.333 66.400,183.600 66.440,183.600 67.200 C 183.600 67.933,183.867 68.000,186.800 68.000 C 189.706 68.000,190.000 68.072,190.000 68.780 C 190.000 69.449,190.327 69.577,192.300 69.680 C 194.233 69.781,194.581 69.912,194.482 70.500 C 194.381 71.102,194.702 71.200,196.782 71.200 C 198.933 71.200,199.200 71.288,199.200 72.000 C 199.200 72.667,199.467 72.800,200.800 72.800 C 202.133 72.800,202.400 72.933,202.400 73.600 C 202.400 74.267,202.667 74.400,204.000 74.400 C 205.156 74.400,205.600 74.567,205.600 75.000 C 205.600 75.417,206.019 75.600,206.973 75.600 C 207.995 75.600,208.411 75.805,208.600 76.400 C 208.796 77.019,209.205 77.200,210.404 77.200 C 211.739 77.200,211.933 77.311,211.800 78.000 C 211.667 78.691,211.861 78.800,213.223 78.800 C 214.533 78.800,214.800 78.935,214.800 79.600 C 214.800 80.133,215.067 80.400,215.600 80.400 C 216.133 80.400,216.400 80.667,216.400 81.200 C 216.400 81.867,216.667 82.000,218.000 82.000 C 219.333 82.000,219.600 82.133,219.600 82.800 C 219.600 83.333,219.867 83.600,220.400 83.600 C 220.933 83.600,221.200 83.867,221.200 84.400 C 221.200 84.933,221.467 85.200,222.000 85.200 C 222.533 85.200,222.800 85.467,222.800 86.000 C 222.800 86.648,223.067 86.800,224.200 86.800 C 225.188 86.800,225.600 86.980,225.600 87.410 C 225.600 87.745,226.061 88.195,226.624 88.409 C 227.193 88.626,227.531 88.988,227.384 89.226 C 227.238 89.461,227.492 89.751,227.947 89.870 C 228.401 89.989,228.882 90.427,229.014 90.843 C 229.146 91.259,229.512 91.600,229.827 91.600 C 230.142 91.600,230.400 91.870,230.400 92.200 C 230.400 92.533,230.756 92.800,231.200 92.800 C 231.733 92.800,232.000 93.067,232.000 93.600 C 232.000 94.133,232.267 94.400,232.800 94.400 C 233.333 94.400,233.600 94.667,233.600 95.200 C 233.600 95.733,233.867 96.000,234.400 96.000 C 234.933 96.000,235.200 96.267,235.200 96.800 C 235.200 97.333,235.467 97.600,236.000 97.600 C 236.533 97.600,236.800 97.867,236.800 98.400 C 236.800 98.933,237.067 99.200,237.600 99.200 C 238.133 99.200,238.400 99.467,238.400 100.000 C 238.400 100.533,238.667 100.800,239.200 100.800 C 239.867 100.800,240.000 101.067,240.000 102.400 C 240.000 103.733,240.133 104.000,240.800 104.000 C 241.333 104.000,241.600 104.267,241.600 104.800 C 241.600 105.329,241.867 105.600,242.387 105.600 C 242.936 105.600,243.102 105.789,242.935 106.224 C 242.776 106.641,242.979 106.922,243.548 107.071 C 244.307 107.269,244.666 108.317,244.447 109.700 C 244.421 109.865,244.760 110.000,245.200 110.000 C 245.733 110.000,246.000 110.267,246.000 110.800 C 246.000 111.333,246.267 111.600,246.800 111.600 C 247.467 111.600,247.600 111.867,247.600 113.200 C 247.600 114.533,247.733 114.800,248.400 114.800 C 249.067 114.800,249.200 115.067,249.200 116.400 C 249.200 117.733,249.333 118.000,250.000 118.000 C 250.667 118.000,250.800 118.267,250.800 119.600 C 250.800 120.933,250.933 121.200,251.600 121.200 C 252.267 121.200,252.400 121.467,252.400 122.800 C 252.400 124.133,252.533 124.400,253.200 124.400 C 253.848 124.400,254.000 124.667,254.000 125.800 C 254.000 126.933,254.152 127.200,254.800 127.200 C 255.511 127.200,255.600 127.467,255.600 129.600 C 255.600 131.733,255.689 132.000,256.400 132.000 C 257.111 132.000,257.200 132.267,257.200 134.400 C 257.200 136.267,257.333 136.800,257.800 136.800 C 258.266 136.800,258.400 137.330,258.400 139.167 C 258.400 141.897,258.659 142.800,259.443 142.800 C 259.942 142.800,260.340 148.459,260.068 151.700 C 260.027 152.195,260.301 152.400,261.005 152.400 L 262.000 152.400 262.000 163.972 L 262.000 175.544 261.100 175.672 C 260.093 175.815,260.110 175.742,260.046 180.300 C 260.011 182.832,259.870 183.600,259.443 183.600 C 258.647 183.600,258.400 184.508,258.400 187.433 C 258.400 189.448,258.271 190.000,257.800 190.000 C 257.320 190.000,257.200 190.600,257.200 193.000 C 257.200 195.733,257.129 196.000,256.400 196.000 C 255.733 196.000,255.600 196.267,255.600 197.600 C 255.600 198.933,255.467 199.200,254.800 199.200 C 254.089 199.200,254.000 199.467,254.000 201.600 C 254.000 203.733,253.911 204.000,253.200 204.000 C 252.533 204.000,252.400 204.267,252.400 205.600 C 252.400 206.933,252.267 207.200,251.600 207.200 C 250.931 207.200,250.800 207.467,250.800 208.827 C 250.800 210.272,250.710 210.426,250.000 210.200 C 249.376 210.002,249.200 210.128,249.200 210.773 C 249.200 211.513,248.791 211.788,247.900 211.647 C 247.735 211.621,247.600 212.320,247.600 213.200 C 247.600 214.533,247.467 214.800,246.800 214.800 C 246.133 214.800,246.000 215.067,246.000 216.400 C 246.000 217.733,245.867 218.000,245.200 218.000 C 244.760 218.000,244.421 218.135,244.447 218.300 C 244.587 219.186,244.316 219.600,243.595 219.600 C 242.880 219.600,242.819 219.779,243.046 221.200 C 243.278 222.646,243.220 222.800,242.451 222.800 C 241.867 222.800,241.600 223.051,241.600 223.600 C 241.600 224.133,241.333 224.400,240.800 224.400 C 240.356 224.400,240.000 224.667,240.000 225.000 C 240.000 225.330,239.653 225.600,239.228 225.600 C 238.732 225.600,238.410 225.922,238.328 226.500 C 238.247 227.070,237.943 227.380,237.500 227.344 C 237.061 227.310,236.800 227.570,236.800 228.044 C 236.800 228.722,236.373 228.985,235.500 228.847 C 235.335 228.821,235.200 229.520,235.200 230.400 C 235.200 231.733,235.067 232.000,234.400 232.000 C 233.867 232.000,233.600 232.267,233.600 232.800 C 233.600 233.333,233.333 233.600,232.800 233.600 C 232.267 233.600,232.000 233.867,232.000 234.400 C 232.000 235.067,231.733 235.200,230.400 235.200 C 229.520 235.200,228.821 235.335,228.847 235.500 C 228.985 236.373,228.722 236.800,228.044 236.800 C 227.570 236.800,227.310 237.061,227.344 237.500 C 227.380 237.943,227.070 238.247,226.500 238.328 C 225.922 238.410,225.600 238.732,225.600 239.228 C 225.600 239.653,225.330 240.000,225.000 240.000 C 224.667 240.000,224.400 240.356,224.400 240.800 C 224.400 241.333,224.133 241.600,223.600 241.600 C 223.051 241.600,222.800 241.867,222.800 242.451 C 222.800 243.220,222.646 243.278,221.200 243.046 C 219.779 242.819,219.600 242.880,219.600 243.595 C 219.600 244.316,219.186 244.587,218.300 244.447 C 218.135 244.421,218.000 244.760,218.000 245.200 C 218.000 245.867,217.733 246.000,216.400 246.000 C 215.067 246.000,214.800 246.133,214.800 246.800 C 214.800 247.333,214.533 247.600,214.000 247.600 C 213.467 247.600,213.200 247.867,213.200 248.400 C 213.200 249.069,212.933 249.200,211.573 249.200 C 210.128 249.200,209.974 249.290,210.200 250.000 C 210.426 250.710,210.272 250.800,208.827 250.800 C 207.467 250.800,207.200 250.931,207.200 251.600 C 207.200 252.267,206.933 252.400,205.600 252.400 C 204.267 252.400,204.000 252.533,204.000 253.200 C 204.000 253.867,203.733 254.000,202.400 254.000 C 201.067 254.000,200.800 254.133,200.800 254.800 C 200.800 255.511,200.533 255.600,198.400 255.600 C 196.267 255.600,196.000 255.689,196.000 256.400 C 196.000 257.103,195.733 257.200,193.800 257.200 C 192.111 257.200,191.600 257.339,191.600 257.800 C 191.600 258.271,191.048 258.400,189.033 258.400 C 186.108 258.400,185.200 258.647,185.200 259.443 C 185.200 259.870,184.432 260.011,181.900 260.046 C 177.511 260.108,177.410 260.122,177.351 260.700 C 177.323 260.975,177.278 261.380,177.250 261.600 C 177.218 261.858,172.500 262.000,164.000 262.000 L 150.800 262.000 150.800 261.005 C 150.800 260.301,150.595 260.027,150.100 260.068 C 146.920 260.335,141.600 259.943,141.600 259.443 C 141.600 258.647,140.692 258.400,137.767 258.400 C 135.752 258.400,135.200 258.271,135.200 257.800 C 135.200 257.333,134.667 257.200,132.800 257.200 C 130.667 257.200,130.400 257.111,130.400 256.400 C 130.400 255.733,130.133 255.600,128.800 255.600 C 127.467 255.600,127.200 255.467,127.200 254.800 C 127.200 254.152,126.933 254.000,125.800 254.000 C 124.667 254.000,124.400 253.848,124.400 253.200 C 124.400 252.489,124.133 252.400,122.000 252.400 C 119.867 252.400,119.600 252.311,119.600 251.600 C 119.600 251.067,119.333 250.800,118.800 250.800 C 118.267 250.800,118.000 250.533,118.000 250.000 C 118.000 249.333,117.733 249.200,116.400 249.200 C 115.067 249.200,114.800 249.067,114.800 248.400 C 114.800 247.733,114.533 247.600,113.200 247.600 C 111.867 247.600,111.600 247.467,111.600 246.800 C 111.600 246.267,111.333 246.000,110.800 246.000 C 110.267 246.000,110.000 245.733,110.000 245.200 C 110.000 244.760,109.865 244.421,109.700 244.447 C 108.317 244.666,107.269 244.307,107.071 243.548 C 106.922 242.979,106.641 242.776,106.224 242.935 C 105.789 243.102,105.600 242.936,105.600 242.387 C 105.600 241.735,105.325 241.600,104.000 241.600 C 102.667 241.600,102.400 241.467,102.400 240.800 C 102.400 240.267,102.133 240.000,101.600 240.000 C 101.067 240.000,100.800 239.733,100.800 239.200 C 100.800 238.667,100.533 238.400,100.000 238.400 C 99.467 238.400,99.200 238.133,99.200 237.600 C 99.200 237.067,98.933 236.800,98.400 236.800 C 97.867 236.800,97.600 236.533,97.600 236.000 C 97.600 235.467,97.333 235.200,96.800 235.200 C 96.267 235.200,96.000 234.933,96.000 234.400 C 96.000 233.867,95.733 233.600,95.200 233.600 C 94.667 233.600,94.400 233.333,94.400 232.800 C 94.400 232.267,94.133 232.000,93.600 232.000 C 93.067 232.000,92.800 231.733,92.800 231.200 C 92.800 230.756,92.533 230.400,92.200 230.400 C 91.870 230.400,91.600 230.142,91.600 229.827 C 91.600 229.512,91.259 229.146,90.843 229.014 C 90.427 228.882,89.989 228.401,89.870 227.947 C 89.751 227.492,89.461 227.238,89.226 227.384 C 88.988 227.531,88.626 227.193,88.409 226.624 C 88.195 226.061,87.745 225.600,87.410 225.600 C 86.980 225.600,86.800 225.188,86.800 224.200 C 86.800 223.067,86.648 222.800,86.000 222.800 C 85.467 222.800,85.200 222.533,85.200 222.000 C 85.200 221.467,84.933 221.200,84.400 221.200 C 83.867 221.200,83.600 220.933,83.600 220.400 C 83.600 219.867,83.333 219.600,82.800 219.600 C 82.133 219.600,82.000 219.333,82.000 218.000 C 82.000 216.667,81.867 216.400,81.200 216.400 C 80.667 216.400,80.400 216.133,80.400 215.600 C 80.400 215.067,80.133 214.800,79.600 214.800 C 78.935 214.800,78.800 214.533,78.800 213.223 C 78.800 211.861,78.691 211.667,78.000 211.800 C 77.311 211.933,77.200 211.739,77.200 210.404 C 77.200 209.205,77.019 208.796,76.400 208.600 C 75.805 208.411,75.600 207.995,75.600 206.973 C 75.600 206.019,75.417 205.600,75.000 205.600 C 74.567 205.600,74.400 205.156,74.400 204.000 C 74.400 202.667,74.267 202.400,73.600 202.400 C 72.933 202.400,72.800 202.133,72.800 200.800 C 72.800 199.467,72.667 199.200,72.000 199.200 C 71.288 199.200,71.200 198.933,71.200 196.782 C 71.200 194.702,71.102 194.381,70.500 194.482 C 69.891 194.585,69.785 194.195,69.683 191.500 C 69.579 188.729,69.483 188.400,68.783 188.400 C 68.071 188.400,68.000 188.110,68.000 185.200 C 68.000 182.267,67.933 182.000,67.200 182.000 C 66.446 182.000,66.400 181.733,66.400 177.400 C 66.400 173.067,66.354 172.800,65.600 172.800 C 64.823 172.800,64.800 172.533,64.800 163.400 C 64.800 154.267,64.823 154.000,65.600 154.000 C 66.356 154.000,66.400 153.733,66.400 149.200 C 66.400 144.667,66.444 144.400,67.200 144.400 C 67.929 144.400,68.000 144.133,68.000 141.400 C 68.000 138.667,68.071 138.400,68.800 138.400 C 69.511 138.400,69.600 138.133,69.600 136.000 C 69.600 133.867,69.689 133.600,70.400 133.600 C 71.111 133.600,71.200 133.333,71.200 131.200 C 71.200 129.067,71.289 128.800,72.000 128.800 C 72.701 128.800,72.800 128.533,72.800 126.647 C 72.800 124.830,72.925 124.461,73.600 124.284 C 74.213 124.124,74.400 123.738,74.400 122.637 C 74.400 121.626,74.578 121.200,75.000 121.200 C 75.433 121.200,75.600 120.756,75.600 119.600 C 75.600 118.267,75.733 118.000,76.400 118.000 C 77.067 118.000,77.200 117.733,77.200 116.400 C 77.200 115.067,77.333 114.800,78.000 114.800 C 78.533 114.800,78.800 114.533,78.800 114.000 C 78.800 113.467,79.067 113.200,79.600 113.200 C 80.267 113.200,80.400 112.933,80.400 111.600 C 80.400 110.267,80.533 110.000,81.200 110.000 C 81.733 110.000,82.000 109.733,82.000 109.200 C 82.000 108.667,82.267 108.400,82.800 108.400 C 83.448 108.400,83.600 108.133,83.600 107.000 C 83.600 105.867,83.752 105.600,84.400 105.600 C 84.933 105.600,85.200 105.333,85.200 104.800 C 85.200 104.267,85.467 104.000,86.000 104.000 C 86.533 104.000,86.800 103.733,86.800 103.200 C 86.800 102.667,87.067 102.400,87.600 102.400 C 88.133 102.400,88.400 102.133,88.400 101.600 C 88.400 101.067,88.667 100.800,89.200 100.800 C 89.867 100.800,90.000 100.533,90.000 99.200 C 90.000 97.867,90.133 97.600,90.800 97.600 C 91.333 97.600,91.600 97.333,91.600 96.800 C 91.600 96.356,91.867 96.000,92.200 96.000 C 92.533 96.000,92.800 95.644,92.800 95.200 C 92.800 94.667,93.067 94.400,93.600 94.400 C 94.133 94.400,94.400 94.133,94.400 93.600 C 94.400 93.067,94.667 92.800,95.200 92.800 C 95.644 92.800,96.000 92.533,96.000 92.200 C 96.000 91.867,96.356 91.600,96.800 91.600 C 97.333 91.600,97.600 91.333,97.600 90.800 C 97.600 90.133,97.867 90.000,99.200 90.000 C 100.533 90.000,100.800 89.867,100.800 89.200 C 100.800 88.667,101.067 88.400,101.600 88.400 C 102.133 88.400,102.400 88.133,102.400 87.600 C 102.400 87.067,102.667 86.800,103.200 86.800 C 103.733 86.800,104.000 86.533,104.000 86.000 C 104.000 85.467,104.267 85.200,104.800 85.200 C 105.333 85.200,105.600 84.933,105.600 84.400 C 105.600 83.752,105.867 83.600,107.000 83.600 C 108.133 83.600,108.400 83.448,108.400 82.800 C 108.400 82.267,108.667 82.000,109.200 82.000 C 109.733 82.000,110.000 81.733,110.000 81.200 C 110.000 80.533,110.267 80.400,111.600 80.400 C 112.933 80.400,113.200 80.267,113.200 79.600 C 113.200 79.067,113.467 78.800,114.000 78.800 C 114.533 78.800,114.800 78.533,114.800 78.000 C 114.800 77.333,115.067 77.200,116.400 77.200 C 117.733 77.200,118.000 77.067,118.000 76.400 C 118.000 75.733,118.267 75.600,119.600 75.600 C 120.756 75.600,121.200 75.433,121.200 75.000 C 121.200 74.578,121.626 74.400,122.637 74.400 C 123.738 74.400,124.124 74.213,124.284 73.600 C 124.461 72.925,124.830 72.800,126.647 72.800 C 128.533 72.800,128.800 72.701,128.800 72.000 C 128.800 71.333,129.067 71.200,130.400 71.200 C 131.733 71.200,132.000 71.067,132.000 70.400 C 132.000 69.667,132.267 69.600,135.200 69.600 C 138.133 69.600,138.400 69.533,138.400 68.800 C 138.400 68.071,138.667 68.000,141.400 68.000 C 144.133 68.000,144.400 67.929,144.400 67.200 C 144.400 66.444,144.667 66.400,149.200 66.400 C 153.733 66.400,154.000 66.356,154.000 65.600 C 154.000 64.823,154.267 64.800,163.400 64.800 C 172.533 64.800,172.800 64.823,172.800 65.600 M152.400 81.200 C 152.400 81.956,152.133 82.000,147.553 82.000 C 142.904 82.000,142.715 82.033,142.916 82.800 C 143.108 83.533,142.928 83.600,140.763 83.600 C 138.667 83.600,138.400 83.690,138.400 84.400 C 138.400 85.111,138.133 85.200,136.000 85.200 C 133.867 85.200,133.600 85.289,133.600 86.000 C 133.600 86.711,133.333 86.800,131.200 86.800 C 129.067 86.800,128.800 86.889,128.800 87.600 C 128.800 88.267,128.533 88.400,127.200 88.400 C 125.867 88.400,125.600 88.533,125.600 89.200 C 125.600 89.848,125.333 90.000,124.200 90.000 C 123.067 90.000,122.800 90.152,122.800 90.800 C 122.800 91.333,122.533 91.600,122.000 91.600 C 121.451 91.600,121.200 91.867,121.200 92.451 C 121.200 93.220,121.046 93.278,119.600 93.046 C 118.179 92.819,118.000 92.880,118.000 93.595 C 118.000 94.316,117.586 94.587,116.700 94.447 C 116.535 94.421,116.400 94.760,116.400 95.200 C 116.400 95.867,116.133 96.000,114.800 96.000 C 113.467 96.000,113.200 96.133,113.200 96.800 C 113.200 97.333,112.933 97.600,112.400 97.600 C 111.960 97.600,111.621 97.735,111.647 97.900 C 111.788 98.791,111.513 99.200,110.773 99.200 C 110.128 99.200,110.002 99.376,110.200 100.000 C 110.396 100.618,110.272 100.800,109.654 100.800 C 109.205 100.800,108.742 101.151,108.600 101.600 C 108.460 102.040,108.088 102.400,107.773 102.400 C 107.458 102.400,107.200 102.760,107.200 103.200 C 107.200 103.733,106.933 104.000,106.400 104.000 C 105.867 104.000,105.600 104.267,105.600 104.800 C 105.600 105.333,105.333 105.600,104.800 105.600 C 104.267 105.600,104.000 105.867,104.000 106.400 C 104.000 106.933,103.733 107.200,103.200 107.200 C 102.760 107.200,102.400 107.458,102.400 107.773 C 102.400 108.088,102.040 108.460,101.600 108.600 C 101.151 108.742,100.800 109.205,100.800 109.654 C 100.800 110.272,100.618 110.396,100.000 110.200 C 99.376 110.002,99.200 110.128,99.200 110.773 C 99.200 111.513,98.791 111.788,97.900 111.647 C 97.735 111.621,97.600 111.960,97.600 112.400 C 97.600 112.933,97.333 113.200,96.800 113.200 C 96.133 113.200,96.000 113.467,96.000 114.800 C 96.000 116.133,95.867 116.400,95.200 116.400 C 94.760 116.400,94.421 116.535,94.447 116.700 C 94.587 117.586,94.316 118.000,93.595 118.000 C 92.880 118.000,92.819 118.179,93.046 119.600 C 93.278 121.046,93.220 121.200,92.451 121.200 C 91.725 121.200,91.600 121.435,91.600 122.800 C 91.600 124.117,91.463 124.400,90.824 124.400 C 90.216 124.400,90.021 124.725,89.924 125.900 C 89.830 127.041,89.633 127.387,89.100 127.344 C 88.544 127.300,88.400 127.608,88.400 128.844 C 88.400 130.133,88.263 130.400,87.600 130.400 C 86.933 130.400,86.800 130.667,86.800 132.000 C 86.800 133.333,86.667 133.600,86.000 133.600 C 85.267 133.600,85.200 133.867,85.200 136.800 C 85.200 139.733,85.133 140.000,84.400 140.000 C 83.697 140.000,83.600 140.267,83.600 142.200 C 83.600 144.276,83.400 144.621,82.300 144.447 C 82.135 144.421,82.000 146.920,82.000 150.000 C 82.000 155.333,81.962 155.600,81.200 155.600 C 80.446 155.600,80.400 155.867,80.400 160.200 C 80.400 164.533,80.446 164.800,81.200 164.800 C 81.867 164.800,82.000 165.067,82.000 166.400 C 82.000 167.733,82.133 168.000,82.800 168.000 C 83.333 168.000,83.600 168.267,83.600 168.800 C 83.600 169.333,83.867 169.600,84.400 169.600 C 84.933 169.600,85.200 169.867,85.200 170.400 C 85.200 171.166,85.467 171.200,91.400 171.200 C 97.333 171.200,97.600 171.166,97.600 170.400 C 97.600 169.733,97.867 169.600,99.200 169.600 L 100.800 169.600 100.800 168.000 C 100.800 166.667,100.933 166.400,101.600 166.400 C 102.347 166.400,102.400 166.133,102.400 162.400 C 102.400 158.667,102.453 158.400,103.200 158.400 C 103.954 158.400,104.000 158.133,104.000 153.800 C 104.000 149.467,104.046 149.200,104.800 149.200 C 105.511 149.200,105.600 148.933,105.600 146.800 C 105.600 144.667,105.689 144.400,106.400 144.400 C 107.103 144.400,107.200 144.133,107.200 142.200 C 107.200 140.511,107.339 140.000,107.800 140.000 C 108.233 140.000,108.400 139.556,108.400 138.400 C 108.400 137.067,108.533 136.800,109.200 136.800 C 109.867 136.800,110.000 136.533,110.000 135.200 C 110.000 133.867,110.133 133.600,110.800 133.600 C 111.333 133.600,111.600 133.333,111.600 132.800 C 111.600 132.267,111.867 132.000,112.400 132.000 C 113.067 132.000,113.200 131.733,113.200 130.400 C 113.200 129.067,113.333 128.800,114.000 128.800 C 114.533 128.800,114.800 128.533,114.800 128.000 C 114.800 127.467,115.067 127.200,115.600 127.200 C 116.133 127.200,116.400 126.933,116.400 126.400 C 116.400 125.867,116.667 125.600,117.200 125.600 C 117.848 125.600,118.000 125.333,118.000 124.200 C 118.000 123.067,118.152 122.800,118.800 122.800 C 119.333 122.800,119.600 122.533,119.600 122.000 C 119.600 121.467,119.867 121.200,120.400 121.200 C 120.933 121.200,121.200 120.933,121.200 120.400 C 121.200 119.867,121.467 119.600,122.000 119.600 C 122.533 119.600,122.800 119.333,122.800 118.800 C 122.800 118.267,123.067 118.000,123.600 118.000 C 124.133 118.000,124.400 117.733,124.400 117.200 C 124.400 116.552,124.667 116.400,125.800 116.400 C 126.933 116.400,127.200 116.248,127.200 115.600 C 127.200 115.067,127.467 114.800,128.000 114.800 C 128.533 114.800,128.800 114.533,128.800 114.000 C 128.800 113.333,129.067 113.200,130.400 113.200 C 131.733 113.200,132.000 113.067,132.000 112.400 C 132.000 111.867,132.267 111.600,132.800 111.600 C 133.333 111.600,133.600 111.333,133.600 110.800 C 133.600 110.133,133.867 110.000,135.200 110.000 C 136.533 110.000,136.800 109.867,136.800 109.200 C 136.800 108.533,137.067 108.400,138.400 108.400 C 139.556 108.400,140.000 108.233,140.000 107.800 C 140.000 107.339,140.511 107.200,142.200 107.200 C 144.133 107.200,144.400 107.103,144.400 106.400 C 144.400 105.689,144.667 105.600,146.800 105.600 C 148.933 105.600,149.200 105.511,149.200 104.800 C 149.200 104.053,149.467 104.000,153.200 104.000 C 156.933 104.000,157.200 103.947,157.200 103.200 C 157.200 102.434,157.467 102.400,163.400 102.400 C 169.333 102.400,169.600 102.366,169.600 101.600 C 169.600 101.067,169.867 100.800,170.400 100.800 C 170.933 100.800,171.200 100.533,171.200 100.000 C 171.200 99.467,171.467 99.200,172.000 99.200 C 172.533 99.200,172.800 98.933,172.800 98.400 C 172.800 97.867,173.067 97.600,173.600 97.600 C 174.360 97.600,174.400 97.333,174.400 92.200 C 174.400 87.067,174.360 86.800,173.600 86.800 C 172.933 86.800,172.800 86.533,172.800 85.200 C 172.800 83.867,172.667 83.600,172.000 83.600 C 171.467 83.600,171.200 83.333,171.200 82.800 C 171.200 82.133,170.933 82.000,169.600 82.000 C 168.267 82.000,168.000 81.867,168.000 81.200 C 168.000 80.427,167.733 80.400,160.200 80.400 C 152.667 80.400,152.400 80.427,152.400 81.200 M102.400 200.000 C 102.400 200.533,102.133 200.800,101.600 200.800 C 101.067 200.800,100.800 201.067,100.800 201.600 C 100.800 202.133,100.533 202.400,100.000 202.400 C 99.230 202.400,99.200 202.667,99.200 209.400 C 99.200 216.133,99.230 216.400,100.000 216.400 C 100.533 216.400,100.800 216.667,100.800 217.200 C 100.800 217.733,101.067 218.000,101.600 218.000 C 102.133 218.000,102.400 218.267,102.400 218.800 C 102.400 219.570,102.667 219.600,109.400 219.600 C 116.133 219.600,116.400 219.570,116.400 218.800 C 116.400 218.267,116.667 218.000,117.200 218.000 C 117.733 218.000,118.000 217.733,118.000 217.200 C 118.000 216.667,118.267 216.400,118.800 216.400 C 119.570 216.400,119.600 216.133,119.600 209.400 C 119.600 202.667,119.570 202.400,118.800 202.400 C 118.267 202.400,118.000 202.133,118.000 201.600 C 118.000 201.067,117.733 200.800,117.200 200.800 C 116.667 200.800,116.400 200.533,116.400 200.000 C 116.400 199.230,116.133 199.200,109.400 199.200 C 102.667 199.200,102.400 199.230,102.400 200.000 M254.000 251.600 C 254.000 252.133,253.733 252.400,253.200 252.400 C 252.667 252.400,252.400 252.667,252.400 253.200 C 252.400 253.733,252.133 254.000,251.600 254.000 C 250.933 254.000,250.800 254.267,250.800 255.600 C 250.800 256.933,250.667 257.200,250.000 257.200 C 249.256 257.200,249.200 257.467,249.200 261.000 C 249.200 264.533,249.256 264.800,250.000 264.800 C 250.667 264.800,250.800 265.067,250.800 266.400 C 250.800 267.733,250.933 268.000,251.600 268.000 C 252.133 268.000,252.400 268.267,252.400 268.800 C 252.400 269.333,252.667 269.600,253.200 269.600 C 253.733 269.600,254.000 269.867,254.000 270.400 C 254.000 270.933,254.267 271.200,254.800 271.200 C 255.333 271.200,255.600 271.467,255.600 272.000 C 255.600 272.533,255.867 272.800,256.400 272.800 C 256.917 272.800,257.200 273.067,257.200 273.553 C 257.200 273.986,257.563 274.402,258.055 274.530 C 258.777 274.719,258.870 274.951,258.655 276.027 C 258.515 276.727,258.400 278.358,258.400 279.650 C 258.400 281.472,258.265 282.000,257.800 282.000 C 257.296 282.000,257.200 282.867,257.200 287.400 C 257.200 291.933,257.296 292.800,257.800 292.800 C 258.271 292.800,258.400 293.352,258.400 295.367 C 258.400 298.292,258.647 299.200,259.443 299.200 C 259.969 299.200,260.200 300.125,260.068 301.700 C 260.026 302.198,260.302 302.400,261.023 302.400 C 261.969 302.400,262.024 302.506,261.852 304.000 C 261.698 305.341,261.785 305.600,262.388 305.600 C 262.783 305.600,263.201 305.960,263.316 306.400 C 263.431 306.840,263.812 307.200,264.163 307.200 C 264.513 307.200,264.800 307.470,264.800 307.800 C 264.800 308.133,265.156 308.400,265.600 308.400 C 266.133 308.400,266.400 308.667,266.400 309.200 C 266.400 309.733,266.667 310.000,267.200 310.000 C 267.733 310.000,268.000 310.267,268.000 310.800 C 268.000 311.333,268.267 311.600,268.800 311.600 C 269.333 311.600,269.600 311.867,269.600 312.400 C 269.600 312.933,269.867 313.200,270.400 313.200 C 270.933 313.200,271.200 313.467,271.200 314.000 C 271.200 314.533,271.467 314.800,272.000 314.800 C 272.533 314.800,272.800 315.067,272.800 315.600 C 272.800 316.133,273.067 316.400,273.600 316.400 C 274.133 316.400,274.400 316.667,274.400 317.200 C 274.400 317.644,274.667 318.000,275.000 318.000 C 275.330 318.000,275.600 318.274,275.600 318.610 C 275.600 318.945,276.047 319.390,276.592 319.597 C 277.252 319.848,277.506 320.180,277.350 320.587 C 277.176 321.039,277.383 321.200,278.134 321.200 C 278.939 321.200,279.122 321.369,279.000 322.000 C 278.889 322.578,279.061 322.800,279.623 322.800 C 280.067 322.800,280.400 323.073,280.400 323.437 C 280.400 323.788,280.760 324.169,281.200 324.284 C 281.640 324.399,282.000 324.742,282.000 325.047 C 282.000 325.351,282.360 325.600,282.800 325.600 C 283.333 325.600,283.600 325.867,283.600 326.400 C 283.600 326.933,283.867 327.200,284.400 327.200 C 284.933 327.200,285.200 327.467,285.200 328.000 C 285.200 328.533,285.467 328.800,286.000 328.800 C 286.533 328.800,286.800 329.067,286.800 329.600 C 286.800 330.133,287.067 330.400,287.600 330.400 C 288.133 330.400,288.400 330.667,288.400 331.200 C 288.400 331.733,288.667 332.000,289.200 332.000 C 289.733 332.000,290.000 332.267,290.000 332.800 C 290.000 333.333,290.267 333.600,290.800 333.600 C 291.333 333.600,291.600 333.867,291.600 334.400 C 291.600 334.929,291.867 335.200,292.387 335.200 C 292.920 335.200,293.101 335.393,292.947 335.794 C 292.798 336.183,293.076 336.525,293.752 336.782 C 294.444 337.045,294.707 337.376,294.550 337.787 C 294.384 338.218,294.565 338.400,295.157 338.400 C 295.662 338.400,296.000 338.656,296.000 339.037 C 296.000 339.388,296.360 339.769,296.800 339.884 C 297.240 339.999,297.600 340.359,297.600 340.684 C 297.600 341.009,297.960 341.369,298.400 341.484 C 298.840 341.599,299.200 341.942,299.200 342.247 C 299.200 342.551,299.560 342.800,300.000 342.800 C 300.533 342.800,300.800 343.067,300.800 343.600 C 300.800 344.133,301.067 344.400,301.600 344.400 C 302.133 344.400,302.400 344.667,302.400 345.200 C 302.400 345.733,302.667 346.000,303.200 346.000 C 303.733 346.000,304.000 346.267,304.000 346.800 C 304.000 347.333,304.267 347.600,304.800 347.600 C 305.333 347.600,305.600 347.867,305.600 348.400 C 305.600 348.933,305.867 349.200,306.400 349.200 C 306.933 349.200,307.200 349.467,307.200 350.000 C 307.200 350.669,307.467 350.800,308.827 350.800 C 310.272 350.800,310.426 350.890,310.200 351.600 C 310.002 352.224,310.128 352.400,310.773 352.400 C 311.513 352.400,311.788 352.809,311.647 353.700 C 311.621 353.865,312.320 354.000,313.200 354.000 C 314.533 354.000,314.800 354.133,314.800 354.800 C 314.800 355.511,315.067 355.600,317.200 355.600 C 319.333 355.600,319.600 355.689,319.600 356.400 C 319.600 357.170,319.867 357.200,326.600 357.200 C 333.333 357.200,333.600 357.170,333.600 356.400 C 333.600 355.670,333.867 355.600,336.637 355.600 C 339.338 355.600,339.698 355.511,339.884 354.800 C 340.041 354.199,340.430 354.000,341.447 354.000 C 342.533 354.000,342.800 353.842,342.800 353.200 C 342.800 352.667,343.067 352.400,343.600 352.400 C 344.133 352.400,344.400 352.133,344.400 351.600 C 344.400 350.933,344.667 350.800,346.000 350.800 C 347.333 350.800,347.600 350.667,347.600 350.000 C 347.600 349.467,347.867 349.200,348.400 349.200 C 348.933 349.200,349.200 348.933,349.200 348.400 C 349.200 347.867,349.467 347.600,350.000 347.600 C 350.667 347.600,350.800 347.333,350.800 346.000 C 350.800 344.667,350.933 344.400,351.600 344.400 C 352.133 344.400,352.400 344.133,352.400 343.600 C 352.400 343.067,352.667 342.800,353.200 342.800 C 353.842 342.800,354.000 342.533,354.000 341.447 C 354.000 340.430,354.199 340.041,354.800 339.884 C 355.480 339.706,355.600 339.338,355.600 337.437 C 355.600 335.467,355.695 335.200,356.400 335.200 C 357.173 335.200,357.200 334.933,357.200 327.400 C 357.200 319.867,357.173 319.600,356.400 319.600 C 355.689 319.600,355.600 319.333,355.600 317.200 C 355.600 315.067,355.511 314.800,354.800 314.800 C 354.133 314.800,354.000 314.533,354.000 313.200 C 354.000 312.320,353.865 311.621,353.700 311.647 C 352.809 311.788,352.400 311.513,352.400 310.773 C 352.400 310.128,352.224 310.002,351.600 310.200 C 350.890 310.426,350.800 310.272,350.800 308.827 C 350.800 307.467,350.669 307.200,350.000 307.200 C 349.467 307.200,349.200 306.933,349.200 306.400 C 349.200 305.867,348.933 305.600,348.400 305.600 C 347.867 305.600,347.600 305.333,347.600 304.800 C 347.600 304.267,347.333 304.000,346.800 304.000 C 346.267 304.000,346.000 303.733,346.000 303.200 C 346.000 302.667,345.733 302.400,345.200 302.400 C 344.667 302.400,344.400 302.133,344.400 301.600 C 344.400 301.067,344.133 300.800,343.600 300.800 C 343.067 300.800,342.800 300.533,342.800 300.000 C 342.800 299.560,342.551 299.200,342.247 299.200 C 341.942 299.200,341.599 298.840,341.484 298.400 C 341.369 297.960,341.009 297.600,340.684 297.600 C 340.359 297.600,339.999 297.240,339.884 296.800 C 339.769 296.360,339.388 296.000,339.037 296.000 C 338.656 296.000,338.400 295.662,338.400 295.157 C 338.400 294.565,338.218 294.384,337.787 294.550 C 337.376 294.707,337.045 294.444,336.782 293.752 C 336.525 293.076,336.183 292.798,335.794 292.947 C 335.393 293.101,335.200 292.920,335.200 292.387 C 335.200 291.867,334.929 291.600,334.400 291.600 C 333.867 291.600,333.600 291.333,333.600 290.800 C 333.600 290.267,333.333 290.000,332.800 290.000 C 332.267 290.000,332.000 289.733,332.000 289.200 C 332.000 288.667,331.733 288.400,331.200 288.400 C 330.667 288.400,330.400 288.133,330.400 287.600 C 330.400 287.067,330.133 286.800,329.600 286.800 C 329.067 286.800,328.800 286.533,328.800 286.000 C 328.800 285.467,328.533 285.200,328.000 285.200 C 327.467 285.200,327.200 284.933,327.200 284.400 C 327.200 283.867,326.933 283.600,326.400 283.600 C 325.867 283.600,325.600 283.333,325.600 282.800 C 325.600 282.356,325.333 282.000,325.000 282.000 C 324.670 282.000,324.400 281.713,324.400 281.363 C 324.400 281.012,324.040 280.631,323.600 280.516 C 323.160 280.401,322.800 279.978,322.800 279.576 C 322.800 279.061,322.564 278.891,322.000 279.000 C 321.369 279.122,321.200 278.939,321.200 278.134 C 321.200 277.383,321.039 277.176,320.587 277.350 C 320.180 277.506,319.848 277.252,319.597 276.592 C 319.390 276.047,318.945 275.600,318.610 275.600 C 318.274 275.600,318.000 275.330,318.000 275.000 C 318.000 274.667,317.644 274.400,317.200 274.400 C 316.667 274.400,316.400 274.133,316.400 273.600 C 316.400 273.067,316.133 272.800,315.600 272.800 C 315.067 272.800,314.800 272.533,314.800 272.000 C 314.800 271.467,314.533 271.200,314.000 271.200 C 313.467 271.200,313.200 270.933,313.200 270.400 C 313.200 269.867,312.933 269.600,312.400 269.600 C 311.867 269.600,311.600 269.333,311.600 268.800 C 311.600 268.267,311.333 268.000,310.800 268.000 C 310.267 268.000,310.000 267.733,310.000 267.200 C 310.000 266.667,309.733 266.400,309.200 266.400 C 308.667 266.400,308.400 266.133,308.400 265.600 C 308.400 265.160,308.151 264.800,307.847 264.800 C 307.542 264.800,307.199 264.440,307.084 264.000 C 306.924 263.387,306.538 263.200,305.437 263.200 C 304.267 263.200,304.000 263.052,304.000 262.400 C 304.000 261.960,303.865 261.621,303.700 261.647 C 302.817 261.787,302.400 261.517,302.400 260.805 C 302.400 260.292,302.152 260.030,301.700 260.068 C 299.511 260.251,297.600 259.960,297.600 259.443 C 297.600 258.498,296.625 258.400,287.267 258.406 C 278.724 258.412,276.946 258.597,277.266 259.445 C 277.340 259.640,276.995 259.858,276.500 259.928 C 275.919 260.010,275.600 259.849,275.600 259.471 C 275.600 259.149,275.330 258.782,275.000 258.655 C 274.670 258.529,274.400 258.149,274.400 257.813 C 274.400 257.467,274.052 257.200,273.600 257.200 C 273.067 257.200,272.800 256.933,272.800 256.400 C 272.800 255.867,272.533 255.600,272.000 255.600 C 271.467 255.600,271.200 255.333,271.200 254.800 C 271.200 254.267,270.933 254.000,270.400 254.000 C 269.867 254.000,269.600 253.733,269.600 253.200 C 269.600 252.533,269.333 252.400,268.000 252.400 C 266.667 252.400,266.400 252.267,266.400 251.600 C 266.400 250.834,266.133 250.800,260.200 250.800 C 254.267 250.800,254.000 250.834,254.000 251.600 M288.400 279.600 C 288.400 280.267,288.667 280.400,290.000 280.400 C 291.333 280.400,291.600 280.533,291.600 281.200 C 291.600 281.720,291.867 282.000,292.363 282.000 C 292.928 282.000,293.071 282.207,292.916 282.800 C 292.755 283.414,292.904 283.600,293.553 283.600 C 294.310 283.600,294.589 284.005,294.447 284.900 C 294.421 285.065,294.760 285.200,295.200 285.200 C 295.733 285.200,296.000 285.467,296.000 286.000 C 296.000 286.533,296.267 286.800,296.800 286.800 C 297.333 286.800,297.600 287.067,297.600 287.600 C 297.600 288.133,297.867 288.400,298.400 288.400 C 298.933 288.400,299.200 288.667,299.200 289.200 C 299.200 289.733,299.467 290.000,300.000 290.000 C 300.533 290.000,300.800 290.267,300.800 290.800 C 300.800 291.333,301.067 291.600,301.600 291.600 C 302.044 291.600,302.400 291.867,302.400 292.200 C 302.400 292.533,302.756 292.800,303.200 292.800 C 303.733 292.800,304.000 293.067,304.000 293.600 C 304.000 294.133,304.267 294.400,304.800 294.400 C 305.333 294.400,305.600 294.667,305.600 295.200 C 305.600 295.733,305.867 296.000,306.400 296.000 C 306.933 296.000,307.200 296.267,307.200 296.800 C 307.200 297.240,307.458 297.600,307.773 297.600 C 308.088 297.600,308.460 297.960,308.600 298.400 C 308.742 298.849,309.205 299.200,309.654 299.200 C 310.272 299.200,310.396 299.382,310.200 300.000 C 310.002 300.624,310.128 300.800,310.773 300.800 C 311.513 300.800,311.788 301.209,311.647 302.100 C 311.621 302.265,311.960 302.400,312.400 302.400 C 312.933 302.400,313.200 302.667,313.200 303.200 C 313.200 303.733,313.467 304.000,314.000 304.000 C 314.533 304.000,314.800 304.267,314.800 304.800 C 314.800 305.333,315.067 305.600,315.600 305.600 C 316.133 305.600,316.400 305.867,316.400 306.400 C 316.400 306.933,316.667 307.200,317.200 307.200 C 317.644 307.200,318.000 307.467,318.000 307.800 C 318.000 308.133,318.356 308.400,318.800 308.400 C 319.333 308.400,319.600 308.667,319.600 309.200 C 319.600 309.733,319.867 310.000,320.400 310.000 C 320.933 310.000,321.200 310.267,321.200 310.800 C 321.200 311.333,321.467 311.600,322.000 311.600 C 322.533 311.600,322.800 311.867,322.800 312.400 C 322.800 312.933,323.067 313.200,323.600 313.200 C 324.133 313.200,324.400 313.467,324.400 314.000 C 324.400 314.444,324.667 314.800,325.000 314.800 C 325.330 314.800,325.600 315.074,325.600 315.410 C 325.600 315.745,326.047 316.190,326.592 316.397 C 327.252 316.648,327.506 316.980,327.350 317.387 C 327.176 317.839,327.383 318.000,328.134 318.000 C 328.939 318.000,329.122 318.169,329.000 318.800 C 328.889 319.378,329.061 319.600,329.623 319.600 C 330.133 319.600,330.400 319.875,330.400 320.400 C 330.400 320.933,330.667 321.200,331.200 321.200 C 331.733 321.200,332.000 321.467,332.000 322.000 C 332.000 322.533,332.267 322.800,332.800 322.800 C 333.448 322.800,333.600 323.067,333.600 324.200 C 333.600 325.349,333.748 325.600,334.428 325.600 C 335.058 325.600,335.225 325.815,335.128 326.500 C 335.042 327.101,334.767 327.361,334.300 327.282 C 333.729 327.187,333.600 327.464,333.600 328.782 C 333.600 330.133,333.468 330.400,332.800 330.400 C 332.267 330.400,332.000 330.667,332.000 331.200 C 332.000 331.733,331.733 332.000,331.200 332.000 C 330.667 332.000,330.400 332.267,330.400 332.800 C 330.400 333.468,330.133 333.600,328.782 333.600 C 327.464 333.600,327.187 333.729,327.282 334.300 C 327.361 334.767,327.101 335.042,326.500 335.128 C 325.815 335.225,325.600 335.058,325.600 334.428 C 325.600 333.748,325.349 333.600,324.200 333.600 C 323.067 333.600,322.800 333.448,322.800 332.800 C 322.800 332.267,322.533 332.000,322.000 332.000 C 321.467 332.000,321.200 331.733,321.200 331.200 C 321.200 330.667,320.933 330.400,320.400 330.400 C 319.875 330.400,319.600 330.133,319.600 329.623 C 319.600 329.061,319.378 328.889,318.800 329.000 C 318.169 329.122,318.000 328.939,318.000 328.134 C 318.000 327.383,317.839 327.176,317.387 327.350 C 316.980 327.506,316.648 327.252,316.397 326.592 C 316.190 326.047,315.745 325.600,315.410 325.600 C 315.074 325.600,314.800 325.330,314.800 325.000 C 314.800 324.667,314.444 324.400,314.000 324.400 C 313.467 324.400,313.200 324.133,313.200 323.600 C 313.200 323.067,312.933 322.800,312.400 322.800 C 311.867 322.800,311.600 322.533,311.600 322.000 C 311.600 321.467,311.333 321.200,310.800 321.200 C 310.267 321.200,310.000 320.933,310.000 320.400 C 310.000 319.867,309.733 319.600,309.200 319.600 C 308.667 319.600,308.400 319.333,308.400 318.800 C 308.400 318.356,308.133 318.000,307.800 318.000 C 307.467 318.000,307.200 317.644,307.200 317.200 C 307.200 316.667,306.933 316.400,306.400 316.400 C 305.867 316.400,305.600 316.133,305.600 315.600 C 305.600 315.067,305.333 314.800,304.800 314.800 C 304.267 314.800,304.000 314.533,304.000 314.000 C 304.000 313.467,303.733 313.200,303.200 313.200 C 302.667 313.200,302.400 312.933,302.400 312.400 C 302.400 311.960,302.265 311.621,302.100 311.647 C 301.209 311.788,300.800 311.513,300.800 310.773 C 300.800 310.128,300.624 310.002,300.000 310.200 C 299.382 310.396,299.200 310.272,299.200 309.654 C 299.200 309.205,298.849 308.742,298.400 308.600 C 297.960 308.460,297.600 308.088,297.600 307.773 C 297.600 307.458,297.240 307.200,296.800 307.200 C 296.267 307.200,296.000 306.933,296.000 306.400 C 296.000 305.867,295.733 305.600,295.200 305.600 C 294.667 305.600,294.400 305.333,294.400 304.800 C 294.400 304.267,294.133 304.000,293.600 304.000 C 293.067 304.000,292.800 303.733,292.800 303.200 C 292.800 302.756,292.533 302.400,292.200 302.400 C 291.867 302.400,291.600 302.044,291.600 301.600 C 291.600 301.067,291.333 300.800,290.800 300.800 C 290.267 300.800,290.000 300.533,290.000 300.000 C 290.000 299.467,289.733 299.200,289.200 299.200 C 288.667 299.200,288.400 298.933,288.400 298.400 C 288.400 297.867,288.133 297.600,287.600 297.600 C 287.067 297.600,286.800 297.333,286.800 296.800 C 286.800 296.267,286.533 296.000,286.000 296.000 C 285.467 296.000,285.200 295.733,285.200 295.200 C 285.200 294.760,285.065 294.421,284.900 294.447 C 284.005 294.589,283.600 294.310,283.600 293.553 C 283.600 292.904,283.414 292.755,282.800 292.916 C 282.207 293.071,282.000 292.928,282.000 292.363 C 282.000 291.867,281.720 291.600,281.200 291.600 C 280.533 291.600,280.400 291.333,280.400 290.000 C 280.400 288.667,280.267 288.400,279.600 288.400 C 279.067 288.400,278.800 288.133,278.800 287.600 C 278.800 287.067,279.067 286.800,279.600 286.800 C 280.267 286.800,280.400 286.533,280.400 285.200 C 280.400 283.867,280.533 283.600,281.200 283.600 C 281.733 283.600,282.000 283.333,282.000 282.800 C 282.000 282.267,282.267 282.000,282.800 282.000 C 283.333 282.000,283.600 281.733,283.600 281.200 C 283.600 280.533,283.867 280.400,285.200 280.400 C 286.533 280.400,286.800 280.267,286.800 279.600 C 286.800 279.067,287.067 278.800,287.600 278.800 C 288.133 278.800,288.400 279.067,288.400 279.600 " stroke="none" fill="#2494f4" fill-rule="evenodd"></path><path id="path1" d="M159.322 43.099 C 161.699 43.170,165.479 43.169,167.722 43.098 C 169.965 43.027,168.020 42.969,163.400 42.969 C 158.780 42.970,156.945 43.028,159.322 43.099 M261.777 164.000 C 261.777 170.490,261.832 173.145,261.899 169.900 C 261.966 166.655,261.966 161.345,261.899 158.100 C 261.832 154.855,261.777 157.510,261.777 164.000 M42.969 163.400 C 42.970 168.020,43.028 169.855,43.099 167.478 C 43.170 165.101,43.169 161.321,43.098 159.078 C 43.027 156.835,42.969 158.780,42.969 163.400 M157.300 261.899 C 160.985 261.965,167.015 261.965,170.700 261.899 C 174.385 261.833,171.370 261.779,164.000 261.779 C 156.630 261.779,153.615 261.833,157.300 261.899 " stroke="none" fill="#2894f4" fill-rule="evenodd"></path><path id="path2" d="M159.322 43.099 C 161.699 43.170,165.479 43.169,167.722 43.098 C 169.965 43.027,168.020 42.969,163.400 42.969 C 158.780 42.970,156.945 43.028,159.322 43.099 M261.777 164.000 C 261.777 170.490,261.832 173.145,261.899 169.900 C 261.966 166.655,261.966 161.345,261.899 158.100 C 261.832 154.855,261.777 157.510,261.777 164.000 M42.969 163.400 C 42.970 168.020,43.028 169.855,43.099 167.478 C 43.170 165.101,43.169 161.321,43.098 159.078 C 43.027 156.835,42.969 158.780,42.969 163.400 M157.300 261.899 C 160.985 261.965,167.015 261.965,170.700 261.899 C 174.385 261.833,171.370 261.779,164.000 261.779 C 156.630 261.779,153.615 261.833,157.300 261.899 " stroke="none" fill="#2894f4" fill-rule="evenodd"></path><path id="path3" d="M159.322 43.099 C 161.699 43.170,165.479 43.169,167.722 43.098 C 169.965 43.027,168.020 42.969,163.400 42.969 C 158.780 42.970,156.945 43.028,159.322 43.099 M261.777 164.000 C 261.777 170.490,261.832 173.145,261.899 169.900 C 261.966 166.655,261.966 161.345,261.899 158.100 C 261.832 154.855,261.777 157.510,261.777 164.000 M42.969 163.400 C 42.970 168.020,43.028 169.855,43.099 167.478 C 43.170 165.101,43.169 161.321,43.098 159.078 C 43.027 156.835,42.969 158.780,42.969 163.400 M157.300 261.899 C 160.985 261.965,167.015 261.965,170.700 261.899 C 174.385 261.833,171.370 261.779,164.000 261.779 C 156.630 261.779,153.615 261.833,157.300 261.899 " stroke="none" fill="#2894f4" fill-rule="evenodd"></path><path id="path4" d="M159.322 43.099 C 161.699 43.170,165.479 43.169,167.722 43.098 C 169.965 43.027,168.020 42.969,163.400 42.969 C 158.780 42.970,156.945 43.028,159.322 43.099 M261.777 164.000 C 261.777 170.490,261.832 173.145,261.899 169.900 C 261.966 166.655,261.966 161.345,261.899 158.100 C 261.832 154.855,261.777 157.510,261.777 164.000 M42.969 163.400 C 42.970 168.020,43.028 169.855,43.099 167.478 C 43.170 165.101,43.169 161.321,43.098 159.078 C 43.027 156.835,42.969 158.780,42.969 163.400 M157.300 261.899 C 160.985 261.965,167.015 261.965,170.700 261.899 C 174.385 261.833,171.370 261.779,164.000 261.779 C 156.630 261.779,153.615 261.833,157.300 261.899 " stroke="none" fill="#2894f4" fill-rule="evenodd"></path></g></svg>